<?xml version="1.0" standalone="no"?>
<!DOCTYPE svg PUBLIC "-//W3C//DTD SVG 1.1//EN" "http://www.w3.org/Graphics/SVG/1.1/DTD/svg11.dtd" >
<svg xmlns="http://www.w3.org/2000/svg" xmlns:xlink="http://www.w3.org/1999/xlink" version="1.1">
<metadata>
Created by FontForge 20201107 at Sat Dec  4 22:09:10 2021
 By 
</metadata>
<defs>
<font id="Unnamed-Light" horiz-adv-x="570" >
  <font-face 
    font-family="Unnamed Light"
    font-weight="300"
    font-stretch="normal"
    units-per-em="1000"
    panose-1="2 0 0 9 0 0 0 0 0 0"
    ascent="800"
    descent="-200"
    x-height="500"
    cap-height="680"
    bbox="-123.916 -210 1368 918"
    underline-thickness="50"
    underline-position="-125"
    unicode-range="U+0020-2212"
  />
<missing-glyph horiz-adv-x="250" 
 />
    <glyph glyph-name=".notdef" horiz-adv-x="250" 
 />
    <glyph glyph-name=".null" horiz-adv-x="0" 
 />
    <glyph glyph-name="nonmarkingreturn" horiz-adv-x="333" 
 />
    <glyph glyph-name="space" unicode=" " horiz-adv-x="260" 
 />
    <glyph glyph-name="exclam" unicode="!" horiz-adv-x="193" 
d="M31 0h131v132h-131v-132zM68 229h57l20 451h-97z" />
    <glyph glyph-name="quotedbl" unicode="&#x22;" horiz-adv-x="259" 
d="M101 730h-70l20 -183h14h16zM229 730h-70l20 -183h14h16z" />
    <glyph glyph-name="numbersign" unicode="#" horiz-adv-x="646" 
d="M46 425h510l10 60h-510zM105 0h61l104 680h-61zM330 0h61l104 680h-61zM26 195h510l10 60h-510z" />
    <glyph glyph-name="dollar" unicode="$" 
d="M525 441q0 50 -17 94t-48.5 76t-77.5 50.5t-103 18.5q-52 0 -96 -11t-75.5 -33t-49.5 -55.5t-18 -79.5q0 -66 32.5 -100t81.5 -50t106 -22t106 -16.5t81.5 -32.5t32.5 -71q0 -75 -47.5 -112t-143.5 -37q-91 0 -145 51t-54 138h-60q0 -50 17.5 -95.5t49.5 -79.5t78.5 -54
t103.5 -20t105 12.5t82.5 37t54 62t19.5 87.5q0 70 -32.5 106.5t-81.5 53.5t-106 22.5t-106 14.5t-81.5 29t-32.5 66q0 66 43 97.5t134 31.5q43 0 78 -12.5t59.5 -36t37.5 -56.5t13 -74h60zM253 750v-100h60v100h-60zM253 30v-100h60v100h-60z" />
    <glyph glyph-name="percent" unicode="%" horiz-adv-x="977" 
d="M577 760h63l-254 -860h-63zM574 176q0 42 13.5 76.5t38 59t58.5 37.5t76 13t76.5 -13t58.5 -37.5t37.5 -59t13.5 -76.5t-13.5 -76t-37.5 -58.5t-58.5 -38t-76.5 -13.5t-76 13.5t-58.5 38t-38 58.5t-13.5 76zM634 176q0 -60 33.5 -93t93.5 -33q59 0 92.5 33t33.5 93
t-33.5 93t-92.5 33q-60 0 -93.5 -33t-33.5 -93zM30 504q0 42 13.5 76t38 58.5t59 38t75.5 13.5q42 0 76.5 -13.5t59 -38t38 -58.5t13.5 -76t-13.5 -76.5t-38 -59t-59 -37.5t-76.5 -13q-41 0 -75.5 13t-59 37.5t-38 59t-13.5 76.5zM90 504q0 -60 33.5 -93t93.5 -33t93 33
t33 93q0 59 -33 92.5t-93 33.5t-93.5 -33.5t-33.5 -92.5z" />
    <glyph glyph-name="ampersand" unicode="&#x26;" horiz-adv-x="561" 
d="M455 0h76l-312 359q-18 20 -34 39t-28.5 39t-20 42t-7.5 48q0 43 23 73t78 30q53 0 74 -25.5t21 -67.5q0 -40 -22 -66.5t-54.5 -46.5t-70.5 -39t-71 -45.5t-54.5 -64.5t-21.5 -96q0 -37 13.5 -71.5t38 -60.5t58 -41.5t74.5 -15.5q63 0 101.5 24.5t73.5 79.5l137 221
l-52 29l-130 -209q-12 -20 -23.5 -35.5t-25 -26.5t-31.5 -17t-43 -6q-30 0 -54 10.5t-41 27.5t-26.5 40.5t-9.5 49.5q0 47 21.5 77t54.5 52t71 41t70.5 43.5t54 58.5t21.5 87q0 35 -10 63.5t-29.5 48t-48.5 30.5t-66 11q-40 0 -70 -13t-50.5 -35.5t-30.5 -52t-10 -62.5
q0 -32 8.5 -59.5t22 -50.5t30 -43t31.5 -38z" />
    <glyph glyph-name="quotesingle" unicode="'" horiz-adv-x="130" 
d="M100 730h-70l20 -183h15h15z" />
    <glyph glyph-name="parenleft" unicode="(" horiz-adv-x="371" 
d="M340 -130v60q-57 0 -103 28.5t-78.5 79.5t-50.5 122t-18 155t18 155t50.5 122t78.5 79.5t103 28.5v60q-61 0 -117 -28t-99 -84t-68.5 -139.5t-25.5 -193.5t25.5 -193.5t68.5 -139.5t99 -84t117 -28z" />
    <glyph glyph-name="parenright" unicode=")" horiz-adv-x="371" 
d="M30 -130v60q57 0 103 28.5t79 79.5t50.5 122t17.5 155t-17.5 155t-50.5 122t-79 79.5t-103 28.5v60q61 0 117 -28t99 -84t68.5 -139.5t25.5 -193.5t-25.5 -193.5t-68.5 -139.5t-99 -84t-117 -28z" />
    <glyph glyph-name="asterisk" unicode="*" horiz-adv-x="433" 
d="M252 730h-70l20 -183h15h15zM402 560l-18 68l-171 -67l4 -14l4 -15zM293 377l57 40l-121 138l-12 -8l-13 -9zM229 538l-12 9l-12 8l-122 -138l58 -40zM213 532l4 15l3 14l-171 67l-18 -68z" />
    <glyph glyph-name="plus" unicode="+" horiz-adv-x="390" 
d="M165 414v-328h60v328h-60zM31 280v-60h328v60h-328z" />
    <glyph glyph-name="comma" unicode="," horiz-adv-x="192" 
d="M30 0h132v132h-132v-132zM162 0v19h-71v-19l-47 -119h41z" />
    <glyph glyph-name="hyphen" unicode="-" horiz-adv-x="388" 
d="M30 220h328v60h-328v-60z" />
    <glyph glyph-name="period" unicode="." horiz-adv-x="193" 
d="M31 0h132v132h-132v-132z" />
    <glyph glyph-name="slash" unicode="/" horiz-adv-x="379" 
d="M285 760h63l-254 -860h-63z" />
    <glyph glyph-name="zero" unicode="0" horiz-adv-x="571" 
d="M30 385v-90q0 -70 16.5 -126t49 -96t80 -61.5t110.5 -21.5q62 0 109.5 21.5t79.5 61.5t48.5 96.5t16.5 125.5v90q0 70 -16.5 126.5t-48.5 96t-79.5 61t-109.5 21.5q-63 0 -110.5 -21.5t-80 -61t-49 -96t-16.5 -126.5zM90 385q0 54 11 99t34.5 77.5t61 50.5t89.5 18
t89 -18t60.5 -50.5t34.5 -77.5t11 -99v-90q0 -54 -11 -99t-34.5 -77.5t-60.5 -50.5t-89 -18t-89.5 18t-61 50.5t-34.5 77.5t-11 99v90zM142 47h64l223 586h-66z" />
    <glyph glyph-name="one" unicode="1" 
d="M30 0h510v60h-510v-60zM255 46h60v634h-60v-634zM94 410q53 0 87 11t53 36t26 64t7 96l-12 63q0 -68 -3.5 -109.5t-19.5 -63.5t-49 -29.5t-92 -7.5h-51v-60h54z" />
    <glyph glyph-name="two" unicode="2" 
d="M30 1h510v60h-510v-60zM110 419q0 45 10.5 84t31.5 67t53 44t75 16q86 0 138 -43t52 -138q0 -59 -28.5 -95t-72.5 -59.5t-96.5 -41t-101.5 -41t-87.5 -58.5t-53.5 -93l60 -10q15 44 53.5 71.5t87.5 48t101.5 40.5t96.5 49t72.5 74t28.5 115q0 60 -18 105t-50.5 75.5
t-78.5 45.5t-102 15t-99 -20.5t-72.5 -57t-44.5 -86t-15 -107.5h60z" />
    <glyph glyph-name="three" unicode="3" horiz-adv-x="572" 
d="M284 394q116 0 186 -48t70 -143q0 -97 -70 -155t-186 -58q-114 0 -184.5 58t-70.5 169h60q0 -82 48.5 -124.5t146.5 -42.5t147 42.5t49 124.5q0 58 -53 92.5t-143 34.5h-44v50h44zM58 499q0 46 15.5 81.5t45 60t71.5 37t94 12.5q105 0 165 -49.5t60 -134.5
q0 -39 -17.5 -68.5t-48.5 -49.5t-72 -30.5t-87 -10.5v7v6v34q81 0 122.5 31.5t41.5 73.5q0 66 -40.5 98.5t-123.5 32.5t-124.5 -33t-41.5 -98h-60z" />
    <glyph glyph-name="four" unicode="4" horiz-adv-x="571" 
d="M360 0h60v680h-60v-680zM31 181h510v60h-510v-60zM310 680l-279 -433v-16h61l285 441v8h-67z" />
    <glyph glyph-name="five" unicode="5" horiz-adv-x="572" 
d="M30 204q12 -101 72 -157.5t159 -56.5q109 0 172 69t63 191q0 60 -18.5 99t-49 61.5t-69 31t-79.5 8.5q-40 0 -76.5 -8t-66.5 -25.5t-51 -45.5t-30 -68h34q2 11 9.5 27t26 30.5t51.5 24.5t84 10q39 0 71 -6t55 -22t36 -44t13 -73q0 -97 -45 -148.5t-130 -51.5
q-69 0 -115 37t-56 117h-60zM462 619v60h-380v-60h380zM34 333l21 -30h35l53 376h-61z" />
    <glyph glyph-name="six" unicode="6" horiz-adv-x="572" 
d="M536 215q0 -49 -17.5 -90.5t-50 -71.5t-78.5 -46.5t-104 -16.5q-62 0 -110 21.5t-80 61.5t-48.5 96t-16.5 126v90q0 70 16.5 126.5t48.5 96t80 61t110 21.5q58 0 102.5 -18t75.5 -49.5t46.5 -74.5t15.5 -93h-60q0 77 -44.5 126t-135.5 49q-97 0 -146.5 -63.5
t-49.5 -181.5v-90q0 -119 49.5 -182t146.5 -63q90 0 140 44.5t50 120.5q0 72 -42.5 112.5t-142.5 40.5q-47 0 -85 -12.5t-63.5 -34.5t-37 -52.5t-6.5 -66.5l-27 62q0 29 16 58.5t46.5 53t74.5 38t101 14.5t99.5 -16.5t71 -45t42 -67t13.5 -84.5z" />
    <glyph glyph-name="seven" unicode="7" horiz-adv-x="572" 
d="M30 620h510v60h-510v-60zM30 480h60v177h-60v-177zM480 647v-124q-72 -61 -128 -141q-24 -33 -47 -74.5t-41 -89.5t-29 -103t-11 -115h60q0 59 11 111.5t29 98.5t41 85t47 71q56 74 128 130v150z" />
    <glyph glyph-name="eight" unicode="8" horiz-adv-x="572" 
d="M30 203q0 -97 70 -155t184 -58q116 0 186 58t70 155q0 95 -70 143t-186 48q-114 0 -184 -48t-70 -143zM89 217q0 58 52.5 92.5t142.5 34.5t143 -34.5t53 -92.5q0 -82 -49 -124.5t-147 -42.5t-146.5 42.5t-48.5 124.5zM59 506q0 -39 17.5 -68.5t48.5 -49.5t72 -30.5
t87 -10.5t87 10.5t72 30.5t48.5 49.5t17.5 68.5q0 85 -60 134.5t-165 49.5t-165 -49.5t-60 -134.5zM118 499q0 65 41.5 98t124.5 33t123.5 -32.5t40.5 -98.5q0 -42 -41.5 -73.5t-122.5 -31.5t-123.5 31.5t-42.5 73.5z" />
    <glyph glyph-name="nine" unicode="9" horiz-adv-x="572" 
d="M31 465q0 49 17.5 90.5t50 71.5t78.5 46.5t104 16.5q62 0 110 -21.5t80 -61t48.5 -96t16.5 -126.5v-90q0 -70 -16.5 -126t-48.5 -96t-80 -61.5t-110 -21.5q-58 0 -102.5 18t-75 49.5t-46.5 74.5t-16 93h60q0 -77 44.5 -126t135.5 -49q97 0 146.5 63.5t49.5 181.5v90
q0 119 -49.5 182t-146.5 63q-90 0 -140 -44.5t-50 -120.5q0 -72 42.5 -112.5t142.5 -40.5q47 0 85 12.5t63.5 34.5t37 52.5t6.5 66.5l27 -62q0 -29 -16 -58.5t-46.5 -53t-74.5 -38t-101 -14.5t-99.5 16.5t-70.5 45t-42 67t-14 84.5z" />
    <glyph glyph-name="colon" unicode=":" horiz-adv-x="193" 
d="M31 0h132v132h-132v-132zM31 368h132v132h-132v-132z" />
    <glyph glyph-name="semicolon" unicode=";" horiz-adv-x="193" 
d="M31 0h132v132h-132v-132zM163 0v19h-66v-19l-52 -119h41zM31 368h132v132h-132v-132z" />
    <glyph glyph-name="less" unicode="&#x3c;" horiz-adv-x="572" 
d="M540 551v-62l-500 -154v63zM540 129v62l-500 154v-63z" />
    <glyph glyph-name="equal" unicode="=" horiz-adv-x="490" 
d="M30 329h430v60h-430v-60zM30 183h430v60h-430v-60z" />
    <glyph glyph-name="greater" unicode="&#x3e;" horiz-adv-x="572" 
d="M40 551v-62l500 -154v63zM40 129v62l500 154v-63z" />
    <glyph glyph-name="question" unicode="?" horiz-adv-x="550" 
d="M209 0h132v132h-132v-132zM303 203v100h-60v-100h60zM90 419q0 46 12 84.5t35 66.5t56.5 44t76.5 16q37 0 71.5 -10t60.5 -30.5t42 -50.5t16 -70q0 -46 -13.5 -77.5t-40 -51t-67.5 -28.5t-96 -9v-50q59 0 109.5 9t88 33t58.5 66t21 108q0 47 -18 87.5t-50.5 70
t-78.5 46.5t-102 17t-100.5 -20.5t-76 -57t-48 -86t-16.5 -107.5h60z" />
    <glyph glyph-name="at" unicode="@" horiz-adv-x="731" 
d="M426 -160h-140q-62 0 -110 21.5t-80 61.5t-48.5 96t-16.5 126v210q0 70 16.5 126t48.5 96t80 61.5t110 21.5h160q62 0 109.5 -21.5t80 -61.5t49 -96t16.5 -126v-84q0 -54 -7.5 -94.5t-27 -67t-53.5 -40t-89 -13.5h-22v60h22q40 0 63.5 7.5t35.5 25.5t15 47.5t3 74.5v84
q0 121 -49.5 183t-145.5 62h-160q-96 0 -145.5 -62t-49.5 -183v-210q0 -121 49.5 -183t145.5 -62h140v-60zM506 250q0 -42 -8 -79t-27 -64t-51 -42.5t-79 -15.5q-37 0 -67.5 14t-52.5 40t-34.5 63.5t-12.5 83.5q0 47 12.5 84t34.5 63t52.5 40t67.5 14q48 0 79.5 -15.5
t50.5 -42.5t27 -63.5t8 -79.5zM491 250q0 78 -33.5 116.5t-101.5 38.5t-101.5 -38.5t-33.5 -116.5t33.5 -116.5t101.5 -38.5t101.5 38.5t33.5 116.5zM537 57h-46v113v83v77v114h46v-387z" />
    <glyph glyph-name="A" unicode="A" horiz-adv-x="602" 
d="M137 187h295v60h-295v-60zM30 0h63l192 585l31 95h-31h-32zM317 680h-32h-31l31 -95l192 -585h63z" />
    <glyph glyph-name="B" unicode="B" 
d="M30 0h60v680h-60v-680zM63 620h214q36 0 66 -6.5t51.5 -20.5t33.5 -37.5t12 -56.5t-12 -56t-33.5 -37.5t-51.5 -20.5t-66 -6h-214v-60h224q47 0 86 11.5t67 34t44 56t16 78.5t-16 78.5t-44 56.5t-67 34.5t-86 11.5h-224v-60zM63 0h264q47 0 86 13t67 37.5t44 59.5t16 80
t-16 80t-44 59t-67 37t-86 13h-264v-60h254q72 0 117.5 -31t45.5 -98t-45.5 -98.5t-117.5 -31.5h-254v-60z" />
    <glyph glyph-name="C" unicode="C" horiz-adv-x="632" 
d="M540 255q-5 -61 -23.5 -110t-50.5 -83.5t-77 -53t-103 -18.5q-62 0 -110 21.5t-80 61.5t-48.5 96t-16.5 126v90q0 70 16.5 126.5t48.5 96t80 61t110 21.5q116 0 180 -71.5t74 -193.5h-60q-4 46 -17 83.5t-36.5 64.5t-58.5 42t-82 15q-52 0 -89 -18t-61 -50.5t-35 -77.5
t-11 -99v-90q0 -54 11 -99t35 -77.5t61 -50.5t89 -18q47 0 82 15t58.5 42t36.5 64.5t17 83.5h60z" />
    <glyph glyph-name="D" unicode="D" horiz-adv-x="730" 
d="M30 0h60v680h-60v-680zM76 0h178q58 0 110 19.5t91 60.5t62 105t23 153t-23 153.5t-62 106.5t-91 62t-110 20h-178v-60h163q121 0 181 -71.5t60 -210.5t-60 -208.5t-181 -69.5h-163v-60z" />
    <glyph glyph-name="E" unicode="E" 
d="M30 0h60v680h-60v-680zM76 620h418v60h-418v-60zM76 0h418v60h-418v-60zM76 310h378v60h-378v-60z" />
    <glyph glyph-name="F" unicode="F" horiz-adv-x="519" 
d="M30 0h60v680h-60v-680zM76 620h418v60h-418v-60zM76 310h378v60h-378v-60z" />
    <glyph glyph-name="G" unicode="G" horiz-adv-x="567" 
d="M312 247h228v50h-228v-50zM480 0h60v287h-60v-287zM480 255q-4 -46 -17 -83.5t-36.5 -64.5t-58.5 -42t-82 -15q-52 0 -89 18t-61 50.5t-35 77.5t-11 99v90q0 54 11 99t35 77.5t61 50.5t89 18q47 0 82 -15t58.5 -42t36.5 -64.5t17 -83.5h60q-10 122 -74 193.5t-180 71.5
q-62 0 -110 -21.5t-80 -61t-48.5 -96t-16.5 -126.5v-90q0 -70 16.5 -126t48.5 -96t80 -61.5t110 -21.5q58 0 98.5 19t66 53.5t37.5 83.5t12 109h-20z" />
    <glyph glyph-name="H" unicode="H" 
d="M30 0h60v680h-60v-680zM480 0h60v680h-60v-680zM76 322h418v60h-418v-60z" />
    <glyph glyph-name="I" unicode="I" 
d="M30 0h510v60h-510v-60zM30 620h510v60h-510v-60zM255 33h60v617h-60v-617z" />
    <glyph glyph-name="J" unicode="J" 
d="M90 261q0 -45 13.5 -84t38.5 -67t60 -44t78 -16t79.5 15.5t63.5 43.5t42 67t15 85v419h60v-419q0 -58 -19.5 -107.5t-54 -86t-82 -57t-103.5 -20.5t-102 20.5t-79 57t-51.5 86t-18.5 107.5h60zM159 680h346v-60h-346v60z" />
    <glyph glyph-name="K" unicode="K" 
d="M30 681h60v-680h-60v680zM540 681l-477 -444v82l389 362h88zM540 0h-81l-318 353l41 44z" />
    <glyph glyph-name="L" unicode="L" horiz-adv-x="524" 
d="M30 0h60v680h-60v-680zM76 0h388v60h-388v-60z" />
    <glyph glyph-name="M" unicode="M" horiz-adv-x="680" 
d="M30 0h60v680h-60v-680zM590 0h60v680h-60v-680zM30 680l278 -680h64l-278 680h-64zM586 680l-278 -680h64l278 680h-64z" />
    <glyph glyph-name="N" unicode="N" horiz-adv-x="650" 
d="M30 0h60v680h-60v-680zM560 0h60v680h-60v-680zM620 0v21l-530 659h-60v-21l530 -659h60z" />
    <glyph glyph-name="O" unicode="O" horiz-adv-x="571" 
d="M31 385v-90q0 -70 16.5 -126t48.5 -96t80 -61.5t110 -21.5t109.5 21.5t80 61.5t49 96.5t16.5 125.5v90q0 70 -16.5 126.5t-49 96t-80 61t-109.5 21.5t-110 -21.5t-80 -61t-48.5 -96t-16.5 -126.5zM90 385q0 54 11 99t35 77.5t61 50.5t89 18t89 -18t60.5 -50.5t34.5 -77.5
t11 -99v-90q0 -54 -11 -99t-34.5 -77.5t-60.5 -50.5t-89 -18t-89 18t-61 50.5t-35 77.5t-11 99v90z" />
    <glyph glyph-name="P" unicode="P" horiz-adv-x="605" 
d="M30 0h60v680h-60v-680zM76 270h254q45 0 83 15.5t66.5 42.5t44.5 64t16 80q0 44 -16.5 81.5t-45 66t-66.5 44.5t-82 16h-254v-60h239q77 0 121 -39.5t44 -108.5q0 -71 -44 -106.5t-121 -35.5h-239v-60z" />
    <glyph glyph-name="Q" unicode="Q" horiz-adv-x="571" 
d="M31 385v-90q0 -70 16.5 -126t48.5 -96t80 -61.5t110 -21.5t109.5 21.5t80 61.5t49 96.5t16.5 125.5v90q0 70 -16.5 126.5t-49 96t-80 61t-109.5 21.5t-110 -21.5t-80 -61t-48.5 -96t-16.5 -126.5zM90 385q0 54 11 99t35 77.5t61 50.5t89 18t89 -18t60.5 -50.5t34.5 -77.5
t11 -99v-90q0 -54 -11 -99t-34.5 -77.5t-60.5 -50.5t-89 -18t-89 18t-61 50.5t-35 77.5t-11 99v90zM256 30v-66q0 -81 33.5 -117.5t106.5 -36.5h116v60h-146q-17 0 -27 1.5t-15 7t-6.5 16t-1.5 28.5v107h-30h-30z" />
    <glyph glyph-name="R" unicode="R" horiz-adv-x="622" 
d="M550 0h-77l-230 286h77zM30 680h60v-680h-60v680zM76 330h239q77 0 121 35.5t44 106.5q0 69 -44 108.5t-121 39.5h-239v60h254q44 0 82 -16t66.5 -44.5t45 -66t16.5 -81.5q0 -43 -16 -80t-44.5 -64t-66.5 -42.5t-83 -15.5h-254v60z" />
    <glyph glyph-name="S" unicode="S" horiz-adv-x="549" 
d="M525 441q0 50 -17 94t-48.5 76t-77.5 50.5t-103 18.5q-52 0 -96 -11t-75.5 -33t-49.5 -55.5t-18 -79.5q0 -66 32.5 -100t81.5 -50t106 -22t106 -16.5t81.5 -32.5t32.5 -71q0 -75 -47.5 -112t-143.5 -37q-91 0 -145 51t-54 138h-60q0 -50 17.5 -95.5t49.5 -79.5t78.5 -54
t103.5 -20t105 12.5t82.5 37t54 62t19.5 87.5q0 70 -32.5 106.5t-81.5 53.5t-106 22.5t-106 14.5t-81.5 29t-32.5 66q0 66 43 97.5t134 31.5q43 0 78 -12.5t59.5 -36t37.5 -56.5t13 -74h60z" />
    <glyph glyph-name="T" unicode="T" 
d="M30 620h510v60h-510v-60zM255 0h60v644h-60v-644z" />
    <glyph glyph-name="U" unicode="U" 
d="M30 680h60v-419q0 -45 13.5 -84t38.5 -67t60 -44t78 -16t79.5 15.5t63.5 43.5t42 67t15 85v419h60v-419q0 -58 -19.5 -107.5t-54 -86t-82 -57t-103.5 -20.5t-102 20.5t-79 57t-51.5 86t-18.5 107.5v419z" />
    <glyph glyph-name="V" unicode="V" horiz-adv-x="600" 
d="M30 680h61l213 -680h-61zM479 680h61l-213 -680h-61z" />
    <glyph glyph-name="W" unicode="W" horiz-adv-x="777" 
d="M31 680h61l143 -680h-61zM236 0h-62l183 680h62zM358 680h62l183 -680h-62zM685 680h61l-143 -680h-61z" />
    <glyph glyph-name="X" unicode="X" horiz-adv-x="586" 
d="M30 680h69l186 -299l186 299h69l-211 -340l211 -340h-69l-186 298l-186 -298h-69l210 340z" />
    <glyph glyph-name="Y" unicode="Y" 
d="M255 0h60v280h-60v-280zM255 270h60l-224 410h-61zM255 270h60l225 410h-61z" />
    <glyph glyph-name="Z" unicode="Z" horiz-adv-x="572" 
d="M30 620h510v60h-510v-60zM30 0h510v60h-510v-60zM30 0h29l481 620v60h-30l-480 -620v-60z" />
    <glyph glyph-name="bracketleft" unicode="[" horiz-adv-x="350" 
d="M30 -130h60v890h-60v-890zM30 -130h290v60h-290v-60zM30 700h290v60h-290v-60z" />
    <glyph glyph-name="backslash" unicode="\" horiz-adv-x="372" 
d="M94 760h-63l254 -860h63z" />
    <glyph glyph-name="bracketright" unicode="]" horiz-adv-x="350" 
d="M320 -130h-60v890h60v-890zM320 -130h-290v60h290v-60zM320 700h-290v60h290v-60z" />
    <glyph glyph-name="asciicircum" unicode="^" horiz-adv-x="572" 
d="M30 -48h510v28h-510v-28z" />
    <glyph glyph-name="underscore" unicode="_" 
d="M30 -115h510v60h-510v-60z" />
    <glyph glyph-name="grave" unicode="`" horiz-adv-x="215" 
d="M114 730h-84v-17l98 -129h57z" />
    <glyph glyph-name="a" unicode="a" 
d="M407 308v-207q0 -25 1.5 -43.5t8.5 -31.5t21.5 -19.5t41.5 -6.5h19v70h-32v223q0 47 -12 87t-36 69t-61.5 45t-89.5 16q-53 0 -93.5 -17t-67.5 -44t-40.5 -60t-13.5 -65h60q0 29 13 52t34.5 39.5t48.5 25.5t55 9q68 0 105.5 -36.5t37.5 -105.5zM433 312q-27 -1 -55 -3
q-25 -2 -54 -4t-57 -4q-41 -2 -83 -9.5t-76.5 -24.5t-56 -46.5t-21.5 -76.5q0 -67 40 -110.5t118 -43.5q86 0 137.5 23.5t78.5 60t35 81t8 85.5h-6.5h-14.5h-19q0 -34 -6.5 -68.5t-26.5 -62.5t-58.5 -45.5t-103.5 -17.5q-59 0 -90.5 20t-31.5 74q0 30 15 49t40.5 30
t57.5 15.5t66 6.5q22 2 50.5 4t53.5 4t42.5 3l17.5 1v59z" />
    <glyph glyph-name="b" unicode="b" horiz-adv-x="530" 
d="M30 730h60v-376v-100v-107v-147h-60v730zM70 250q0 55 10.5 102.5t35 82.5t65.5 55t103 20q47 0 86.5 -18t68 -51.5t44.5 -81.5t16 -109q0 -60 -16 -108t-44.5 -82t-68 -52t-86.5 -18q-62 0 -103 20t-65.5 55.5t-35 83t-10.5 101.5zM90 250q0 -100 43.5 -150t130.5 -50
q89 0 132 49.5t43 150.5t-43 150.5t-132 49.5q-87 0 -130.5 -49.5t-43.5 -150.5z" />
    <glyph glyph-name="c" unicode="c" horiz-adv-x="523" 
d="M493 184q-17 -92 -76 -143t-153 -51q-109 0 -171.5 69t-62.5 191q0 121 62.5 190.5t171.5 69.5q92 0 151 -49t77 -137h-61q-14 64 -55.5 95t-111.5 31q-87 0 -130.5 -50t-43.5 -150q0 -101 43.5 -150.5t130.5 -49.5q73 0 114.5 33t54.5 101h60z" />
    <glyph glyph-name="d" unicode="d" horiz-adv-x="530" 
d="M459 250q0 -54 -10.5 -101.5t-35 -83t-65.5 -55.5t-103 -20q-47 0 -86.5 18t-68 52t-44.5 82t-16 108q0 61 16 109t44.5 81.5t68 51.5t86.5 18q62 0 103 -20t66 -55t35 -82.5t10 -102.5zM439 250q0 101 -43 150.5t-131 49.5t-131.5 -49.5t-43.5 -150.5t43.5 -150.5
t131.5 -49.5q87 0 130.5 50t43.5 150zM499 0h-60v147v107v100v376h60v-730z" />
    <glyph glyph-name="e" unicode="e" horiz-adv-x="529" 
d="M75 234h424v16l-49 44h-375v-60zM432 176q-14 -64 -56 -95t-112 -31q-87 0 -130.5 49.5t-43.5 150.5q0 100 43.5 150t130.5 50q89 0 132 -49.5t43 -150.5h60q0 121 -62.5 190.5t-172.5 69.5q-109 0 -171.5 -69.5t-62.5 -190.5q0 -122 62.5 -191t171.5 -69q92 0 151 49
t77 137h-60z" />
    <glyph glyph-name="f" unicode="f" horiz-adv-x="532" 
d="M502 0h-471v60h471v-60zM188 36v540q0 81 33.5 117.5t106.5 36.5h174v-60h-203q-17 0 -27 -1.5t-15 -7t-7 -16t-2 -28.5v-581h-60zM502 440h-471v60h471v-60z" />
    <glyph glyph-name="g" unicode="g" horiz-adv-x="530" 
d="M439 146v100v107v147h60v-537q0 -80 -33 -116.5t-106 -36.5h-280v60h309q17 0 27 1.5t15 7t6.5 16t1.5 27.5v224zM30 250q0 60 16 108t44.5 82t68 52t86.5 18q62 0 103 -20t65.5 -55.5t35 -83t10.5 -101.5q0 -55 -10 -102.5t-35 -82.5t-66 -55t-103 -20q-47 0 -86.5 18
t-68 51.5t-44.5 81.5t-16 109zM90 250q0 -101 43.5 -150.5t131.5 -49.5t131 49.5t43 150.5q0 100 -43.5 150t-130.5 50q-88 0 -131.5 -49.5t-43.5 -150.5z" />
    <glyph glyph-name="h" unicode="h" horiz-adv-x="529" 
d="M30 0h60v730h-60v-730zM76 298l14 -89q0 70 14.5 117t39 76t56 41t66.5 12q54 0 87.5 -17t53 -46.5t26 -69t6.5 -83.5v-239h60v254q0 56 -13 103t-39.5 81t-66.5 53t-94 19q-97 0 -149.5 -54.5t-60.5 -157.5z" />
    <glyph glyph-name="i" unicode="i" horiz-adv-x="532" 
d="M31 0h470v60h-470v-60zM296 36v310q0 81 -33.5 117.5t-106.5 36.5h-125v-60h155q17 0 26.5 -1.5t15 -7t7 -16t1.5 -28.5v-351h60zM221 553h90v97h-90v-97z" />
    <glyph glyph-name="j" unicode="j" horiz-adv-x="347" 
d="M317 499v-535q0 -81 -33.5 -117.5t-106.5 -36.5h-146v60h176q17 0 26.5 1.5t15 7t7 16t1.5 28.5v576h60zM31 439v60h254v-60h-254zM242 553h90v97h-90v-97z" />
    <glyph glyph-name="k" unicode="k" 
d="M30 0h60v750h-60v-750zM520 500h-93l-365 -304v-78zM540 0l-258 318l-45 -39l226 -279h77z" />
    <glyph glyph-name="l" unicode="l" horiz-adv-x="553" 
d="M52 0h470v60h-470v-60zM317 36v540q0 81 -33.5 117.5t-106.5 36.5h-146v-60h176q17 0 26.5 -1.5t15 -7t7 -16t1.5 -28.5v-581h60z" />
    <glyph glyph-name="m" unicode="m" horiz-adv-x="760" 
d="M30 0h60v500h-60v-500zM77 298l13 -89q0 70 8.5 117t25 75.5t42 41t60.5 12.5q50 0 76 -14.5t36.5 -42.5t11 -68.5t0.5 -90.5v-239h60v254q0 56 -5.5 103t-23 81t-49.5 53t-86 19q-48 0 -79 -14t-50 -41t-28 -66.5t-12 -90.5zM396 298l14 -89q0 70 8 117t25 75.5t42.5 41
t60.5 12.5q50 0 76 -14.5t36.5 -42.5t11 -68.5t0.5 -90.5v-239h60v254q0 56 -5.5 103t-23 81t-49.5 53t-86 19q-48 0 -79 -14t-50 -41t-28 -66.5t-13 -90.5z" />
    <glyph glyph-name="n" unicode="n" horiz-adv-x="529" 
d="M77 298l13 -89q0 70 14.5 117t39 75.5t56 41t66.5 12.5q50 0 83.5 -14.5t54 -42.5t28.5 -68.5t8 -90.5v-239h60v254q0 56 -13.5 103t-40 81t-66.5 53t-94 19q-97 0 -149.5 -54.5t-59.5 -157.5zM30 0h60v500h-60v-500z" />
    <glyph glyph-name="o" unicode="o" horiz-adv-x="530" 
d="M499 250q0 121 -62.5 190.5t-172.5 69.5q-109 0 -171.5 -69.5t-62.5 -190.5q0 -122 62.5 -191t171.5 -69q110 0 172.5 69t62.5 191zM439 250q0 -101 -43 -150.5t-132 -49.5q-87 0 -130.5 49.5t-43.5 150.5q0 100 43.5 150t130.5 50q89 0 132 -49.5t43 -150.5z" />
    <glyph glyph-name="p" unicode="p" horiz-adv-x="530" 
d="M30 -190h60v336v100v107v147h-60v-690zM499 250q0 60 -16 108t-44.5 82t-68 52t-86.5 18q-62 0 -103 -20t-65.5 -55.5t-35 -83t-10.5 -101.5q0 -55 10.5 -102.5t35 -82.5t65.5 -55t103 -20q47 0 86.5 18t68 51.5t44.5 81.5t16 109zM439 250q0 -101 -43 -150.5t-132 -49.5
q-87 0 -130.5 49.5t-43.5 150.5q0 100 43.5 150t130.5 50q89 0 132 -49.5t43 -150.5z" />
    <glyph glyph-name="q" unicode="q" horiz-adv-x="530" 
d="M30 250q0 60 16 108t44.5 82t68 52t86.5 18q62 0 103 -20t65.5 -55.5t35 -83t10.5 -101.5q0 -55 -10 -102.5t-35 -82.5t-66 -55t-103 -20q-47 0 -86.5 18t-68 51.5t-44.5 81.5t-16 109zM90 250q0 -101 43.5 -150.5t131.5 -49.5t131 49.5t43 150.5q0 100 -43.5 150
t-130.5 50q-88 0 -131.5 -49.5t-43.5 -150.5zM499 -190h-60v336v100v107v147h60v-690z" />
    <glyph glyph-name="r" unicode="r" horiz-adv-x="532" 
d="M502 0h-471v60h471v-60zM189 36v464h26h18h8l8 -146v-318h-60zM223 440h-192v60h192v-60zM410 500h92v-60h-89q-59 0 -92 -7t-49 -29.5t-19.5 -64t-3.5 -109.5l-12 64q0 56 7 95t26.5 64t53 36t86.5 11z" />
    <glyph glyph-name="s" unicode="s" 
d="M460 335l60 -1q0 36 -18 66t-50 52.5t-75.5 35t-94.5 12.5q-58 0 -101.5 -9t-72.5 -27.5t-43.5 -46t-14.5 -64.5q0 -50 32 -76.5t79.5 -39.5t103.5 -17.5t103.5 -11t79.5 -21.5t32 -47q0 -49 -50.5 -64.5t-147.5 -15.5q-100 0 -146 28.5t-46 91.5h-60q0 -45 16 -78.5
t47.5 -56t79 -34t109.5 -11.5q63 0 111.5 8t81 25.5t49 46t16.5 70.5q0 47 -32 71.5t-79.5 36t-103.5 16t-103.5 12t-79.5 24.5t-32 53q0 19 10.5 33t32 24t53.5 15t76 5q39 0 71.5 -8t56.5 -21.5t37 -33t13 -42.5z" />
    <glyph glyph-name="t" unicode="t" horiz-adv-x="531" 
d="M192 650v-496q0 -81 33.5 -117.5t106.5 -36.5h169v60h-199q-16 0 -26 1.5t-15.5 7t-7 16t-1.5 28.5v537h-60zM501 500h-471v-60h471v60z" />
    <glyph glyph-name="u" unicode="u" horiz-adv-x="530" 
d="M500 500h-70v-500h70v500zM444 202l-14 89q0 -70 -13 -115.5t-35.5 -72.5t-52.5 -37.5t-65 -10.5q-50 0 -82 13t-50.5 39t-25 65t-6.5 89v239h-70v-254q0 -56 13.5 -103t40 -81t66.5 -53t94 -19q97 0 144.5 54.5t55.5 157.5z" />
    <glyph glyph-name="v" unicode="v" 
d="M250 0h60l-220 500h-60zM260 0h60l220 500h-60z" />
    <glyph glyph-name="w" unicode="w" horiz-adv-x="880" 
d="M580 0h63l-160 500h-63zM586 0h64l200 500h-65zM250 0h64l-199 500h-65zM257 0h63l160 500h-63z" />
    <glyph glyph-name="x" unicode="x" horiz-adv-x="529" 
d="M540 500h-79l-176 -204l-176 204h-79l215 -250l-215 -250h79l176 204l176 -204h79l-215 250z" />
    <glyph glyph-name="y" unicode="y" horiz-adv-x="560" 
d="M250 0h60l-220 500h-60zM250 0h60l220 500h-60zM269 43l-52 -120q-14 -32 -23 -42.5t-28 -10.5h-123v-60h111q37 0 57 10.5t33.5 30t23.5 48t26 65.5l35 79h-60z" />
    <glyph glyph-name="z" unicode="z" 
d="M517 500l-487 -440v-60h23l487 440v60h-23zM30 500v-60h510v60h-510zM540 60h-510v-60h510v60z" />
    <glyph glyph-name="braceleft" unicode="{" horiz-adv-x="402" 
d="M31 285v60h8q40 0 53 11.5t13 46.5v203q0 81 33.5 117.5t106.5 36.5h127v-60h-156q-17 0 -27 -1.5t-15.5 -7t-7 -16t-1.5 -28.5v-250q0 -53 -30.5 -82.5t-86.5 -29.5h-17zM48 345q56 0 86.5 -30t30.5 -83v-250q0 -18 1.5 -28.5t7 -16t15.5 -7t27 -1.5h156v-60h-127
q-73 0 -106.5 36.5t-33.5 117.5v203q0 35 -13 46.5t-53 11.5h-8v61h17z" />
    <glyph glyph-name="bar" unicode="|" horiz-adv-x="120" 
d="M30 -210h60v960h-60v-960z" />
    <glyph glyph-name="braceright" unicode="}" horiz-adv-x="402" 
d="M372 285v60h-9q-40 0 -53 11.5t-13 46.5v203q0 81 -33.5 117.5t-106.5 36.5h-126v-60h156q17 0 26.5 -1.5t15 -7t7 -16t1.5 -28.5v-250q0 -53 31 -82.5t86 -29.5h18zM354 345q-55 0 -86 -30t-31 -83v-250q0 -18 -1.5 -28.5t-7 -16t-15 -7t-26.5 -1.5h-156v-60h126
q73 0 106.5 36.5t33.5 117.5v203q0 35 13 46.5t53 11.5h9v61h-18z" />
    <glyph glyph-name="asciitilde" unicode="~" horiz-adv-x="572" 
 />
    <glyph glyph-name="exclamdown" unicode="&#xa1;" horiz-adv-x="193" 
d="M31 490h131v-132h-131v132zM68 261h57l20 -451h-97z" />
    <glyph glyph-name="cent" unicode="&#xa2;" horiz-adv-x="572" 
d="M493 184q-17 -92 -76 -143t-153 -51q-109 0 -171.5 69t-62.5 191q0 121 62.5 190.5t171.5 69.5q92 0 151 -49t77 -137h-61q-14 64 -55.5 95t-111.5 31q-87 0 -130.5 -50t-43.5 -150q0 -101 43.5 -150.5t130.5 -49.5q73 0 114.5 33t54.5 101h60zM233 30h60v-100h-60v100z
M233 570h60v-100h-60v100z" />
    <glyph glyph-name="sterling" unicode="&#xa3;" horiz-adv-x="572" 
 />
    <glyph glyph-name="currency" unicode="&#xa4;" horiz-adv-x="572" 
 />
    <glyph glyph-name="yen" unicode="&#xa5;" horiz-adv-x="572" 
d="M105 264h360v60h-360v-60zM105 124h360v60h-360v-60zM255 0h60v280h-60v-280zM255 270h60l-224 410h-61zM255 270h60l225 410h-61z" />
    <glyph glyph-name="brokenbar" unicode="&#xa6;" horiz-adv-x="551" 
 />
    <glyph glyph-name="section" unicode="&#xa7;" horiz-adv-x="513" 
 />
    <glyph glyph-name="dieresis" unicode="&#xa8;" horiz-adv-x="332" 
d="M30 553h90v97h-90v-97zM211 553h90v97h-90v-97z" />
    <glyph glyph-name="copyright" unicode="&#xa9;" horiz-adv-x="832" 
 />
    <glyph glyph-name="ordfeminine" unicode="&#xaa;" horiz-adv-x="357" 
 />
    <glyph glyph-name="guillemotleft" unicode="&#xab;" horiz-adv-x="374" 
d="M30 250l52 -30l120 208l-52 30zM82 280l-52 -30l120 -208l52 30zM180 250l51 -30l113 195l-52 30zM292 55l52 30l-113 195l-51 -30z" />
    <glyph glyph-name="logicalnot" unicode="&#xac;" horiz-adv-x="572" 
d="M30 -48h510v28h-510v-28z" />
    <glyph glyph-name="registered" unicode="&#xae;" horiz-adv-x="832" 
 />
    <glyph glyph-name="macron" unicode="&#xaf;" horiz-adv-x="390" 
d="M30 620h330v60h-330v-60z" />
    <glyph glyph-name="degree" unicode="&#xb0;" horiz-adv-x="428" 
 />
    <glyph glyph-name="plusminus" unicode="&#xb1;" horiz-adv-x="390" 
d="M30 30h328v60h-328v-60zM165 470v-328h60v328h-60zM31 336v-60h328v60h-328z" />
    <glyph glyph-name="twosuperior" unicode="&#xb2;" horiz-adv-x="350" 
 />
    <glyph glyph-name="threesuperior" unicode="&#xb3;" horiz-adv-x="350" 
 />
    <glyph glyph-name="acute" unicode="&#xb4;" horiz-adv-x="215" 
d="M102 730h83v-17l-98 -129h-57z" />
    <glyph glyph-name="paragraph" unicode="&#xb6;" horiz-adv-x="655" 
 />
    <glyph glyph-name="periodcentered" unicode="&#xb7;" horiz-adv-x="268" 
 />
    <glyph glyph-name="cedilla" unicode="&#xb8;" horiz-adv-x="226" 
d="M83 1h65l-55 -57q18 9 36.5 7.5t33 -10t24 -23.5t9.5 -34q0 -39 -22 -56.5t-70 -17.5h-74v60h71q21 1 30 8.5t9 23.5q0 12 -8 18.5t-21 6.5q-9 0 -15.5 -4t-10.5 -9q-5 -6 -8 -13l-39 17z" />
    <glyph glyph-name="onesuperior" unicode="&#xb9;" horiz-adv-x="350" 
 />
    <glyph glyph-name="ordmasculine" unicode="&#xba;" horiz-adv-x="376" 
 />
    <glyph glyph-name="guillemotright" unicode="&#xbb;" horiz-adv-x="374" 
d="M344 250l-52 -30l-120 208l52 30zM292 280l52 -30l-120 -208l-52 30zM194 250l-51 -30l-113 195l52 30zM82 55l-52 30l113 195l51 -30z" />
    <glyph glyph-name="onequarter" unicode="&#xbc;" horiz-adv-x="745" 
 />
    <glyph glyph-name="onehalf" unicode="&#xbd;" horiz-adv-x="771" 
 />
    <glyph glyph-name="threequarters" unicode="&#xbe;" horiz-adv-x="781" 
 />
    <glyph glyph-name="questiondown" unicode="&#xbf;" horiz-adv-x="550" 
d="M341 490h-132v-132h132v132zM247 287v-100h60v100h-60zM460 71q0 -46 -12 -84.5t-35 -66.5t-56.5 -44t-76.5 -16q-37 0 -71.5 10t-60.5 30.5t-42 50.5t-16 70q0 46 13.5 77.5t40 51t67.5 28.5t96 9v50q-59 0 -109.5 -9t-88 -33t-58.5 -66t-21 -108q0 -47 18 -87.5
t50.5 -70t78.5 -46.5t102 -17t100.5 20.5t76 57t48 86t16.5 107.5h-60z" />
    <glyph glyph-name="Agrave" unicode="&#xc0;" horiz-adv-x="602" 
d="M137 187h295v60h-295v-60zM30 0h63l192 585l31 95h-31h-32zM317 680h-32h-31l31 -95l192 -585h63zM271 876h-84v-17l98 -129h57z" />
    <glyph glyph-name="Aacute" unicode="&#xc1;" horiz-adv-x="602" 
d="M137 187h295v60h-295v-60zM30 0h63l192 585l31 95h-31h-32zM317 680h-32h-31l31 -95l192 -585h63zM318 876h83v-17l-98 -129h-57z" />
    <glyph glyph-name="Acircumflex" unicode="&#xc2;" horiz-adv-x="602" 
d="M137 187h295v60h-295v-60zM30 0h63l192 585l31 95h-31h-32zM317 680h-32h-31l31 -95l192 -585h63zM228 876h84v-17l-98 -129h-57zM340 876l72 -146h-57l-98 129v17h83z" />
    <glyph glyph-name="Atilde" unicode="&#xc3;" horiz-adv-x="602" 
d="M137 187h295v60h-295v-60zM30 0h63l192 585l31 95h-31h-32zM317 680h-32h-31l31 -95l192 -585h63zM104 730q0 48 25 80t75 32q34 0 55.5 -10t39 -22.5t34.5 -22.5t41 -10q22 0 33.5 14t11.5 41h60q0 -48 -25 -80t-75 -32q-34 0 -55.5 10t-39 22.5t-34.5 22.5t-41 10
q-22 0 -33.5 -14t-11.5 -41h-60z" />
    <glyph glyph-name="Adieresis" unicode="&#xc4;" horiz-adv-x="602" 
d="M137 187h295v60h-295v-60zM30 0h63l192 585l31 95h-31h-32zM317 680h-32h-31l31 -95l192 -585h63zM149 730h90v97h-90v-97zM330 730h90v97h-90v-97z" />
    <glyph glyph-name="Aring" unicode="&#xc5;" horiz-adv-x="602" 
d="M137 187h295v60h-295v-60zM30 0h63l192 585l31 95h-31h-32zM317 680h-32h-31l31 -95l192 -585h63zM186 819q0 45 26.5 72t72.5 27q44 0 71.5 -27t27.5 -72t-27.5 -72t-71.5 -27q-46 0 -72.5 27t-26.5 72zM227 819q0 -26 16 -41.5t42 -15.5q25 0 41 15.5t16 41.5t-16 41.5
t-41 15.5q-26 0 -42 -15.5t-16 -41.5z" />
    <glyph glyph-name="AE" unicode="&#xc6;" horiz-adv-x="793" 
d="M159 187h255v60h-255v-60zM31 0h66l313 680h-66zM379 0h60v680h-60v-680zM425 620h338v60h-338v-60zM425 0h338v60h-338v-60zM425 310h298v60h-298v-60z" />
    <glyph glyph-name="Ccedilla" unicode="&#xc7;" horiz-adv-x="632" 
d="M540 255q-5 -61 -23.5 -110t-50.5 -83.5t-77 -53t-103 -18.5q-62 0 -110 21.5t-80 61.5t-48.5 96t-16.5 126v90q0 70 16.5 126.5t48.5 96t80 61t110 21.5q116 0 180 -71.5t74 -193.5h-60q-4 46 -17 83.5t-36.5 64.5t-58.5 42t-82 15q-52 0 -89 -18t-61 -50.5t-35 -77.5
t-11 -99v-90q0 -54 11 -99t35 -77.5t61 -50.5t89 -18q47 0 82 15t58.5 42t36.5 64.5t17 83.5h60zM83 1h65l-55 -57q18 9 36.5 7.5t33 -10t24 -23.5t9.5 -34q0 -39 -22 -56.5t-70 -17.5h-74v60h71q21 1 30 8.5t9 23.5q0 12 -8 18.5t-21 6.5q-9 0 -15.5 -4t-10.5 -9
q-5 -6 -8 -13l-39 17z" />
    <glyph glyph-name="Egrave" unicode="&#xc8;" 
d="M30 0h60v680h-60v-680zM76 620h418v60h-418v-60zM76 0h418v60h-418v-60zM76 310h378v60h-378v-60zM251 876h-84v-17l98 -129h57z" />
    <glyph glyph-name="Eacute" unicode="&#xc9;" 
d="M30 0h60v680h-60v-680zM76 620h418v60h-418v-60zM76 0h418v60h-418v-60zM76 310h378v60h-378v-60zM287 876h83v-17l-98 -129h-57z" />
    <glyph glyph-name="Ecircumflex" unicode="&#xca;" 
d="M30 0h60v680h-60v-680zM76 620h418v60h-418v-60zM76 0h418v60h-418v-60zM76 310h378v60h-378v-60zM219 876h84v-17l-98 -129h-57zM331 876l72 -146h-57l-98 129v17h83z" />
    <glyph glyph-name="Edieresis" unicode="&#xcb;" 
d="M30 0h60v680h-60v-680zM76 620h418v60h-418v-60zM76 0h418v60h-418v-60zM76 310h378v60h-378v-60zM139 730h90v97h-90v-97zM320 730h90v97h-90v-97z" />
    <glyph glyph-name="Igrave" unicode="&#xcc;" 
d="M30 0h510v60h-510v-60zM30 620h510v60h-510v-60zM255 33h60v617h-60v-617zM269 876h-84v-17l98 -129h57z" />
    <glyph glyph-name="Iacute" unicode="&#xcd;" 
d="M30 0h510v60h-510v-60zM30 620h510v60h-510v-60zM255 33h60v617h-60v-617zM298 876h83v-17l-98 -129h-57z" />
    <glyph glyph-name="Icircumflex" unicode="&#xce;" 
d="M30 0h510v60h-510v-60zM30 620h510v60h-510v-60zM255 33h60v617h-60v-617zM229 876h84v-17l-98 -129h-57zM341 876l72 -146h-57l-98 129v17h83z" />
    <glyph glyph-name="Idieresis" unicode="&#xcf;" 
d="M30 0h510v60h-510v-60zM30 620h510v60h-510v-60zM255 33h60v617h-60v-617zM149 730h90v97h-90v-97zM330 730h90v97h-90v-97z" />
    <glyph glyph-name="Ntilde" unicode="&#xd1;" horiz-adv-x="650" 
d="M30 0h60v680h-60v-680zM560 0h60v680h-60v-680zM620 0v21l-530 659h-60v-21l530 -659h60zM147 730q0 48 25 80t75 32q34 0 55.5 -10t39 -22.5t34.5 -22.5t41 -10q22 0 33.5 14t11.5 41h60q0 -48 -25 -80t-75 -32q-34 0 -55.5 10t-39 22.5t-34.5 22.5t-41 10
q-22 0 -33.5 -14t-11.5 -41h-60z" />
    <glyph glyph-name="Ograve" unicode="&#xd2;" horiz-adv-x="571" 
d="M31 385v-90q0 -70 16.5 -126t48.5 -96t80 -61.5t110 -21.5t109.5 21.5t80 61.5t49 96.5t16.5 125.5v90q0 70 -16.5 126.5t-49 96t-80 61t-109.5 21.5t-110 -21.5t-80 -61t-48.5 -96t-16.5 -126.5zM90 385q0 54 11 99t35 77.5t61 50.5t89 18t89 -18t60.5 -50.5t34.5 -77.5
t11 -99v-90q0 -54 -11 -99t-34.5 -77.5t-60.5 -50.5t-89 -18t-89 18t-61 50.5t-35 77.5t-11 99v90zM272 876h-84v-17l98 -129h57z" />
    <glyph glyph-name="Oacute" unicode="&#xd3;" horiz-adv-x="571" 
d="M31 385v-90q0 -70 16.5 -126t48.5 -96t80 -61.5t110 -21.5t109.5 21.5t80 61.5t49 96.5t16.5 125.5v90q0 70 -16.5 126.5t-49 96t-80 61t-109.5 21.5t-110 -21.5t-80 -61t-48.5 -96t-16.5 -126.5zM90 385q0 54 11 99t35 77.5t61 50.5t89 18t89 -18t60.5 -50.5t34.5 -77.5
t11 -99v-90q0 -54 -11 -99t-34.5 -77.5t-60.5 -50.5t-89 -18t-89 18t-61 50.5t-35 77.5t-11 99v90zM304 876h83v-17l-98 -129h-57z" />
    <glyph glyph-name="Ocircumflex" unicode="&#xd4;" horiz-adv-x="571" 
d="M31 385v-90q0 -70 16.5 -126t48.5 -96t80 -61.5t110 -21.5t109.5 21.5t80 61.5t49 96.5t16.5 125.5v90q0 70 -16.5 126.5t-49 96t-80 61t-109.5 21.5t-110 -21.5t-80 -61t-48.5 -96t-16.5 -126.5zM90 385q0 54 11 99t35 77.5t61 50.5t89 18t89 -18t60.5 -50.5t34.5 -77.5
t11 -99v-90q0 -54 -11 -99t-34.5 -77.5t-60.5 -50.5t-89 -18t-89 18t-61 50.5t-35 77.5t-11 99v90zM229 876h84v-17l-98 -129h-57zM341 876l72 -146h-57l-98 129v17h83z" />
    <glyph glyph-name="Otilde" unicode="&#xd5;" horiz-adv-x="571" 
d="M31 385v-90q0 -70 16.5 -126t48.5 -96t80 -61.5t110 -21.5t109.5 21.5t80 61.5t49 96.5t16.5 125.5v90q0 70 -16.5 126.5t-49 96t-80 61t-109.5 21.5t-110 -21.5t-80 -61t-48.5 -96t-16.5 -126.5zM90 385q0 54 11 99t35 77.5t61 50.5t89 18t89 -18t60.5 -50.5t34.5 -77.5
t11 -99v-90q0 -54 -11 -99t-34.5 -77.5t-60.5 -50.5t-89 -18t-89 18t-61 50.5t-35 77.5t-11 99v90zM98 740q0 48 25 80t75 32q34 0 55.5 -10t39 -22.5t34.5 -22.5t41 -10q22 0 33.5 14t11.5 41h60q0 -48 -25 -80t-75 -32q-34 0 -55.5 10t-39 22.5t-34.5 22.5t-41 10
q-22 0 -33.5 -14t-11.5 -41h-60z" />
    <glyph glyph-name="Odieresis" unicode="&#xd6;" horiz-adv-x="571" 
d="M31 385v-90q0 -70 16.5 -126t48.5 -96t80 -61.5t110 -21.5t109.5 21.5t80 61.5t49 96.5t16.5 125.5v90q0 70 -16.5 126.5t-49 96t-80 61t-109.5 21.5t-110 -21.5t-80 -61t-48.5 -96t-16.5 -126.5zM90 385q0 54 11 99t35 77.5t61 50.5t89 18t89 -18t60.5 -50.5t34.5 -77.5
t11 -99v-90q0 -54 -11 -99t-34.5 -77.5t-60.5 -50.5t-89 -18t-89 18t-61 50.5t-35 77.5t-11 99v90zM150 730h90v97h-90v-97zM331 730h90v97h-90v-97z" />
    <glyph glyph-name="multiply" unicode="&#xd7;" horiz-adv-x="336" 
d="M263 387l-232 -232l42 -42l232 232zM73 387l-42 -42l232 -232l42 42z" />
    <glyph glyph-name="Ugrave" unicode="&#xd9;" 
d="M30 680h60v-419q0 -45 13.5 -84t38.5 -67t60 -44t78 -16t79.5 15.5t63.5 43.5t42 67t15 85v419h60v-419q0 -58 -19.5 -107.5t-54 -86t-82 -57t-103.5 -20.5t-102 20.5t-79 57t-51.5 86t-18.5 107.5v419zM260 876h-84v-17l98 -129h57z" />
    <glyph glyph-name="Uacute" unicode="&#xda;" 
d="M30 680h60v-419q0 -45 13.5 -84t38.5 -67t60 -44t78 -16t79.5 15.5t63.5 43.5t42 67t15 85v419h60v-419q0 -58 -19.5 -107.5t-54 -86t-82 -57t-103.5 -20.5t-102 20.5t-79 57t-51.5 86t-18.5 107.5v419zM307 876h83v-17l-98 -129h-57z" />
    <glyph glyph-name="Ucircumflex" unicode="&#xdb;" 
d="M30 680h60v-419q0 -45 13.5 -84t38.5 -67t60 -44t78 -16t79.5 15.5t63.5 43.5t42 67t15 85v419h60v-419q0 -58 -19.5 -107.5t-54 -86t-82 -57t-103.5 -20.5t-102 20.5t-79 57t-51.5 86t-18.5 107.5v419zM228 876h84v-17l-98 -129h-57zM340 876l72 -146h-57l-98 129v17h83
z" />
    <glyph glyph-name="Udieresis" unicode="&#xdc;" 
d="M30 680h60v-419q0 -45 13.5 -84t38.5 -67t60 -44t78 -16t79.5 15.5t63.5 43.5t42 67t15 85v419h60v-419q0 -58 -19.5 -107.5t-54 -86t-82 -57t-103.5 -20.5t-102 20.5t-79 57t-51.5 86t-18.5 107.5v419zM149 730h90v97h-90v-97zM330 730h90v97h-90v-97z" />
    <glyph glyph-name="Yacute" unicode="&#xdd;" 
d="M255 0h60v280h-60v-280zM255 270h60l-224 410h-61zM255 270h60l225 410h-61zM310 876h83v-17l-98 -129h-57z" />
    <glyph glyph-name="agrave" unicode="&#xe0;" 
d="M407 308v-207q0 -25 1.5 -43.5t8.5 -31.5t21.5 -19.5t41.5 -6.5h19v70h-32v223q0 47 -12 87t-36 69t-61.5 45t-89.5 16q-53 0 -93.5 -17t-67.5 -44t-40.5 -60t-13.5 -65h60q0 29 13 52t34.5 39.5t48.5 25.5t55 9q68 0 105.5 -36.5t37.5 -105.5zM433 312q-27 -1 -55 -3
q-25 -2 -54 -4t-57 -4q-41 -2 -83 -9.5t-76.5 -24.5t-56 -46.5t-21.5 -76.5q0 -67 40 -110.5t118 -43.5q86 0 137.5 23.5t78.5 60t35 81t8 85.5h-6.5h-14.5h-19q0 -34 -6.5 -68.5t-26.5 -62.5t-58.5 -45.5t-103.5 -17.5q-59 0 -90.5 20t-31.5 74q0 30 15 49t40.5 30
t57.5 15.5t66 6.5q22 2 50.5 4t53.5 4t42.5 3l17.5 1v59zM260 697h-84v-17l98 -129h57z" />
    <glyph glyph-name="aacute" unicode="&#xe1;" 
d="M407 308v-207q0 -25 1.5 -43.5t8.5 -31.5t21.5 -19.5t41.5 -6.5h19v70h-32v223q0 47 -12 87t-36 69t-61.5 45t-89.5 16q-53 0 -93.5 -17t-67.5 -44t-40.5 -60t-13.5 -65h60q0 29 13 52t34.5 39.5t48.5 25.5t55 9q68 0 105.5 -36.5t37.5 -105.5zM433 312q-27 -1 -55 -3
q-25 -2 -54 -4t-57 -4q-41 -2 -83 -9.5t-76.5 -24.5t-56 -46.5t-21.5 -76.5q0 -67 40 -110.5t118 -43.5q86 0 137.5 23.5t78.5 60t35 81t8 85.5h-6.5h-14.5h-19q0 -34 -6.5 -68.5t-26.5 -62.5t-58.5 -45.5t-103.5 -17.5q-59 0 -90.5 20t-31.5 74q0 30 15 49t40.5 30
t57.5 15.5t66 6.5q22 2 50.5 4t53.5 4t42.5 3l17.5 1v59zM280 697h83v-17l-98 -129h-57z" />
    <glyph glyph-name="acircumflex" unicode="&#xe2;" 
d="M407 308v-207q0 -25 1.5 -43.5t8.5 -31.5t21.5 -19.5t41.5 -6.5h19v70h-32v223q0 47 -12 87t-36 69t-61.5 45t-89.5 16q-53 0 -93.5 -17t-67.5 -44t-40.5 -60t-13.5 -65h60q0 29 13 52t34.5 39.5t48.5 25.5t55 9q68 0 105.5 -36.5t37.5 -105.5zM433 312q-27 -1 -55 -3
q-25 -2 -54 -4t-57 -4q-41 -2 -83 -9.5t-76.5 -24.5t-56 -46.5t-21.5 -76.5q0 -67 40 -110.5t118 -43.5q86 0 137.5 23.5t78.5 60t35 81t8 85.5h-6.5h-14.5h-19q0 -34 -6.5 -68.5t-26.5 -62.5t-58.5 -45.5t-103.5 -17.5q-59 0 -90.5 20t-31.5 74q0 30 15 49t40.5 30
t57.5 15.5t66 6.5q22 2 50.5 4t53.5 4t42.5 3l17.5 1v59zM212 697h84v-17l-98 -129h-57zM324 697l72 -146h-57l-98 129v17h83z" />
    <glyph glyph-name="atilde" unicode="&#xe3;" 
d="M407 308v-207q0 -25 1.5 -43.5t8.5 -31.5t21.5 -19.5t41.5 -6.5h19v70h-32v223q0 47 -12 87t-36 69t-61.5 45t-89.5 16q-53 0 -93.5 -17t-67.5 -44t-40.5 -60t-13.5 -65h60q0 29 13 52t34.5 39.5t48.5 25.5t55 9q68 0 105.5 -36.5t37.5 -105.5zM433 312q-27 -1 -55 -3
q-25 -2 -54 -4t-57 -4q-41 -2 -83 -9.5t-76.5 -24.5t-56 -46.5t-21.5 -76.5q0 -67 40 -110.5t118 -43.5q86 0 137.5 23.5t78.5 60t35 81t8 85.5h-6.5h-14.5h-19q0 -34 -6.5 -68.5t-26.5 -62.5t-58.5 -45.5t-103.5 -17.5q-59 0 -90.5 20t-31.5 74q0 30 15 49t40.5 30
t57.5 15.5t66 6.5q22 2 50.5 4t53.5 4t42.5 3l17.5 1v59zM79 578q0 48 25 80t75 32q34 0 55.5 -10t39 -22.5t34.5 -22.5t41 -10q22 0 33.5 14t11.5 41h60q0 -48 -25 -80t-75 -32q-34 0 -55.5 10t-39 22.5t-34.5 22.5t-41 10q-22 0 -33.5 -14t-11.5 -41h-60z" />
    <glyph glyph-name="adieresis" unicode="&#xe4;" 
d="M407 308v-207q0 -25 1.5 -43.5t8.5 -31.5t21.5 -19.5t41.5 -6.5h19v70h-32v223q0 47 -12 87t-36 69t-61.5 45t-89.5 16q-53 0 -93.5 -17t-67.5 -44t-40.5 -60t-13.5 -65h60q0 29 13 52t34.5 39.5t48.5 25.5t55 9q68 0 105.5 -36.5t37.5 -105.5zM433 312q-27 -1 -55 -3
q-25 -2 -54 -4t-57 -4q-41 -2 -83 -9.5t-76.5 -24.5t-56 -46.5t-21.5 -76.5q0 -67 40 -110.5t118 -43.5q86 0 137.5 23.5t78.5 60t35 81t8 85.5h-6.5h-14.5h-19q0 -34 -6.5 -68.5t-26.5 -62.5t-58.5 -45.5t-103.5 -17.5q-59 0 -90.5 20t-31.5 74q0 30 15 49t40.5 30
t57.5 15.5t66 6.5q22 2 50.5 4t53.5 4t42.5 3l17.5 1v59zM133 583h90v97h-90v-97zM314 583h90v97h-90v-97z" />
    <glyph glyph-name="aring" unicode="&#xe5;" 
d="M407 308v-207q0 -25 1.5 -43.5t8.5 -31.5t21.5 -19.5t41.5 -6.5h19v70h-32v223q0 47 -12 87t-36 69t-61.5 45t-89.5 16q-53 0 -93.5 -17t-67.5 -44t-40.5 -60t-13.5 -65h60q0 29 13 52t34.5 39.5t48.5 25.5t55 9q68 0 105.5 -36.5t37.5 -105.5zM433 312q-27 -1 -55 -3
q-25 -2 -54 -4t-57 -4q-41 -2 -83 -9.5t-76.5 -24.5t-56 -46.5t-21.5 -76.5q0 -67 40 -110.5t118 -43.5q86 0 137.5 23.5t78.5 60t35 81t8 85.5h-6.5h-14.5h-19q0 -34 -6.5 -68.5t-26.5 -62.5t-58.5 -45.5t-103.5 -17.5q-59 0 -90.5 20t-31.5 74q0 30 15 49t40.5 30
t57.5 15.5t66 6.5q22 2 50.5 4t53.5 4t42.5 3l17.5 1v59zM170 641q0 45 26.5 72t72.5 27q44 0 71.5 -27t27.5 -72t-27.5 -72t-71.5 -27q-46 0 -72.5 27t-26.5 72zM211 641q0 -26 16 -41.5t42 -15.5q25 0 41 15.5t16 41.5t-16 41.5t-41 15.5q-26 0 -42 -15.5t-16 -41.5z" />
    <glyph glyph-name="ae" unicode="&#xe6;" horiz-adv-x="907" 
d="M408 308v-107h60v92q0 47 -12 87t-36 69t-61.5 45t-89.5 16q-53 0 -93.5 -17t-67.5 -44t-40.5 -60t-13.5 -65h60q0 29 13 52t34.5 39.5t48.5 25.5t55 9q68 0 105.5 -36.5t37.5 -105.5zM434 312q-27 -1 -55 -3q-25 -2 -54 -4t-57 -4q-41 -2 -83 -9.5t-76.5 -24.5
t-56 -46.5t-21.5 -76.5q0 -67 40 -110.5t118 -43.5q86 0 137.5 23.5t78.5 60t35 81t8 85.5h-6.5h-13.5h-20q0 -34 -6.5 -68.5t-26.5 -62.5t-58.5 -45.5t-103.5 -17.5q-59 0 -90.5 20t-31.5 74q0 30 15 49t40.5 30t57.5 15.5t66 6.5q22 2 50.5 4t53.5 4t42.5 3l17.5 1v59z
M452 234h424l1 16l-50 44h-375v-60zM809 176q-14 -64 -55.5 -95t-111.5 -31q-88 0 -131 49.5t-43 150.5q0 100 43 150t131 50t131.5 -49.5t43.5 -150.5h60q0 121 -63 190.5t-172 69.5q-53 0 -95.5 -17t-72.5 -48.5t-47 -77t-19 -102.5v-4v-4v-4v-3q0 -122 62 -191t172 -69
q91 0 150.5 49t76.5 137h-60z" />
    <glyph glyph-name="ccedilla" unicode="&#xe7;" horiz-adv-x="523" 
d="M493 184q-17 -92 -76 -143t-153 -51q-109 0 -171.5 69t-62.5 191q0 121 62.5 190.5t171.5 69.5q92 0 151 -49t77 -137h-61q-14 64 -55.5 95t-111.5 31q-87 0 -130.5 -50t-43.5 -150q0 -101 43.5 -150.5t130.5 -49.5q73 0 114.5 33t54.5 101h60zM267 0h65l-55 -57
q18 9 36.5 7.5t33 -10t24 -23.5t9.5 -34q0 -39 -22 -56.5t-70 -17.5h-74v60h71q21 1 30 8.5t9 23.5q0 12 -8 18.5t-21 6.5q-9 0 -15.5 -4t-10.5 -9q-5 -6 -8 -13l-39 17z" />
    <glyph glyph-name="egrave" unicode="&#xe8;" horiz-adv-x="529" 
d="M75 234h424v16l-49 44h-375v-60zM432 176q-14 -64 -56 -95t-112 -31q-87 0 -130.5 49.5t-43.5 150.5q0 100 43.5 150t130.5 50q89 0 132 -49.5t43 -150.5h60q0 121 -62.5 190.5t-172.5 69.5q-109 0 -171.5 -69.5t-62.5 -190.5q0 -122 62.5 -191t171.5 -69q92 0 151 49
t77 137h-60zM271 697h-84v-17l98 -129h57z" />
    <glyph glyph-name="eacute" unicode="&#xe9;" horiz-adv-x="529" 
d="M75 234h424v16l-49 44h-375v-60zM432 176q-14 -64 -56 -95t-112 -31q-87 0 -130.5 49.5t-43.5 150.5q0 100 43.5 150t130.5 50q89 0 132 -49.5t43 -150.5h60q0 121 -62.5 190.5t-172.5 69.5q-109 0 -171.5 -69.5t-62.5 -190.5q0 -122 62.5 -191t171.5 -69q92 0 151 49
t77 137h-60zM263 815h83v-17l-98 -129h-57z" />
    <glyph glyph-name="ecircumflex" unicode="&#xea;" horiz-adv-x="529" 
d="M75 234h424v16l-49 44h-375v-60zM432 176q-14 -64 -56 -95t-112 -31q-87 0 -130.5 49.5t-43.5 150.5q0 100 43.5 150t130.5 50q89 0 132 -49.5t43 -150.5h60q0 121 -62.5 190.5t-172.5 69.5q-109 0 -171.5 -69.5t-62.5 -190.5q0 -122 62.5 -191t171.5 -69q92 0 151 49
t77 137h-60zM207 697h84v-17l-98 -129h-57zM319 697l72 -146h-57l-98 129v17h83z" />
    <glyph glyph-name="edieresis" unicode="&#xeb;" horiz-adv-x="529" 
d="M75 234h424v16l-49 44h-375v-60zM432 176q-14 -64 -56 -95t-112 -31q-87 0 -130.5 49.5t-43.5 150.5q0 100 43.5 150t130.5 50q89 0 132 -49.5t43 -150.5h60q0 121 -62.5 190.5t-172.5 69.5q-109 0 -171.5 -69.5t-62.5 -190.5q0 -122 62.5 -191t171.5 -69q92 0 151 49
t77 137h-60zM129 583h90v97h-90v-97zM310 583h90v97h-90v-97z" />
    <glyph glyph-name="ntilde" unicode="&#xf1;" horiz-adv-x="529" 
d="M77 298l13 -89q0 70 14.5 117t39 75.5t56 41t66.5 12.5q50 0 83.5 -14.5t54 -42.5t28.5 -68.5t8 -90.5v-239h60v254q0 56 -13.5 103t-40 81t-66.5 53t-94 19q-97 0 -149.5 -54.5t-59.5 -157.5zM30 0h60v500h-60v-500zM88 578q0 48 25 80t75 32q34 0 55.5 -10t39 -22.5
t34.5 -22.5t41 -10q22 0 33.5 14t11.5 41h60q0 -48 -25 -80t-75 -32q-34 0 -55.5 10t-39 22.5t-34.5 22.5t-41 10q-22 0 -33.5 -14t-11.5 -41h-60z" />
    <glyph glyph-name="ograve" unicode="&#xf2;" horiz-adv-x="530" 
d="M499 250q0 121 -62.5 190.5t-172.5 69.5q-109 0 -171.5 -69.5t-62.5 -190.5q0 -122 62.5 -191t171.5 -69q110 0 172.5 69t62.5 191zM439 250q0 -101 -43 -150.5t-132 -49.5q-87 0 -130.5 49.5t-43.5 150.5q0 100 43.5 150t130.5 50q89 0 132 -49.5t43 -150.5zM271 697
h-84v-17l98 -129h57z" />
    <glyph glyph-name="oacute" unicode="&#xf3;" horiz-adv-x="530" 
d="M499 250q0 121 -62.5 190.5t-172.5 69.5q-109 0 -171.5 -69.5t-62.5 -190.5q0 -122 62.5 -191t171.5 -69q110 0 172.5 69t62.5 191zM439 250q0 -101 -43 -150.5t-132 -49.5q-87 0 -130.5 49.5t-43.5 150.5q0 100 43.5 150t130.5 50q89 0 132 -49.5t43 -150.5zM259 697h83
v-17l-98 -129h-57z" />
    <glyph glyph-name="ocircumflex" unicode="&#xf4;" horiz-adv-x="530" 
d="M499 250q0 121 -62.5 190.5t-172.5 69.5q-109 0 -171.5 -69.5t-62.5 -190.5q0 -122 62.5 -191t171.5 -69q110 0 172.5 69t62.5 191zM439 250q0 -101 -43 -150.5t-132 -49.5q-87 0 -130.5 49.5t-43.5 150.5q0 100 43.5 150t130.5 50q89 0 132 -49.5t43 -150.5zM207 697h84
v-17l-98 -129h-57zM319 697l72 -146h-57l-98 129v17h83z" />
    <glyph glyph-name="otilde" unicode="&#xf5;" horiz-adv-x="530" 
d="M499 250q0 121 -62.5 190.5t-172.5 69.5q-109 0 -171.5 -69.5t-62.5 -190.5q0 -122 62.5 -191t171.5 -69q110 0 172.5 69t62.5 191zM439 250q0 -101 -43 -150.5t-132 -49.5q-87 0 -130.5 49.5t-43.5 150.5q0 100 43.5 150t130.5 50q89 0 132 -49.5t43 -150.5zM77 578
q0 48 25 80t75 32q34 0 55.5 -10t39 -22.5t34.5 -22.5t41 -10q22 0 33.5 14t11.5 41h60q0 -48 -25 -80t-75 -32q-34 0 -55.5 10t-39 22.5t-34.5 22.5t-41 10q-22 0 -33.5 -14t-11.5 -41h-60z" />
    <glyph glyph-name="odieresis" unicode="&#xf6;" horiz-adv-x="530" 
d="M499 250q0 121 -62.5 190.5t-172.5 69.5q-109 0 -171.5 -69.5t-62.5 -190.5q0 -122 62.5 -191t171.5 -69q110 0 172.5 69t62.5 191zM439 250q0 -101 -43 -150.5t-132 -49.5q-87 0 -130.5 49.5t-43.5 150.5q0 100 43.5 150t130.5 50q89 0 132 -49.5t43 -150.5zM129 583h90
v97h-90v-97zM310 583h90v97h-90v-97z" />
    <glyph glyph-name="divide" unicode="&#xf7;" horiz-adv-x="572" 
 />
    <glyph glyph-name="ugrave" unicode="&#xf9;" horiz-adv-x="530" 
d="M500 500h-70v-500h70v500zM444 202l-14 89q0 -70 -13 -115.5t-35.5 -72.5t-52.5 -37.5t-65 -10.5q-50 0 -82 13t-50.5 39t-25 65t-6.5 89v239h-70v-254q0 -56 13.5 -103t40 -81t66.5 -53t94 -19q97 0 144.5 54.5t55.5 157.5zM271 697h-84v-17l98 -129h57z" />
    <glyph glyph-name="uacute" unicode="&#xfa;" horiz-adv-x="530" 
d="M500 500h-70v-500h70v500zM444 202l-14 89q0 -70 -13 -115.5t-35.5 -72.5t-52.5 -37.5t-65 -10.5q-50 0 -82 13t-50.5 39t-25 65t-6.5 89v239h-70v-254q0 -56 13.5 -103t40 -81t66.5 -53t94 -19q97 0 144.5 54.5t55.5 157.5zM278 697h83v-17l-98 -129h-57z" />
    <glyph glyph-name="ucircumflex" unicode="&#xfb;" horiz-adv-x="530" 
d="M500 500h-70v-500h70v500zM444 202l-14 89q0 -70 -13 -115.5t-35.5 -72.5t-52.5 -37.5t-65 -10.5q-50 0 -82 13t-50.5 39t-25 65t-6.5 89v239h-70v-254q0 -56 13.5 -103t40 -81t66.5 -53t94 -19q97 0 144.5 54.5t55.5 157.5zM209 697h84v-17l-98 -129h-57zM321 697
l72 -146h-57l-98 129v17h83z" />
    <glyph glyph-name="udieresis" unicode="&#xfc;" horiz-adv-x="530" 
d="M500 500h-70v-500h70v500zM444 202l-14 89q0 -70 -13 -115.5t-35.5 -72.5t-52.5 -37.5t-65 -10.5q-50 0 -82 13t-50.5 39t-25 65t-6.5 89v239h-70v-254q0 -56 13.5 -103t40 -81t66.5 -53t94 -19q97 0 144.5 54.5t55.5 157.5zM129 583h90v97h-90v-97zM310 583h90v97h-90
v-97z" />
    <glyph glyph-name="yacute" unicode="&#xfd;" horiz-adv-x="560" 
d="M250 0h60l-220 500h-60zM250 0h60l220 500h-60zM269 43l-52 -120q-14 -32 -23 -42.5t-28 -10.5h-123v-60h111q37 0 57 10.5t33.5 30t23.5 48t26 65.5l35 79h-60zM273 697h83v-17l-98 -129h-57z" />
    <glyph glyph-name="ydieresis" unicode="&#xff;" horiz-adv-x="560" 
d="M250 0h60l-220 500h-60zM250 0h60l220 500h-60zM269 43l-52 -120q-14 -32 -23 -42.5t-28 -10.5h-123v-60h111q37 0 57 10.5t33.5 30t23.5 48t26 65.5l35 79h-60zM144 583h90v97h-90v-97zM325 583h90v97h-90v-97z" />
    <glyph glyph-name="Amacron" unicode="&#x100;" horiz-adv-x="602" 
d="M137 187h295v60h-295v-60zM30 0h63l192 585l31 95h-31h-32zM317 680h-32h-31l31 -95l192 -585h63zM120 730h330v60h-330v-60z" />
    <glyph glyph-name="amacron" unicode="&#x101;" 
d="M407 308v-207q0 -25 1.5 -43.5t8.5 -31.5t21.5 -19.5t41.5 -6.5h19v70h-32v223q0 47 -12 87t-36 69t-61.5 45t-89.5 16q-53 0 -93.5 -17t-67.5 -44t-40.5 -60t-13.5 -65h60q0 29 13 52t34.5 39.5t48.5 25.5t55 9q68 0 105.5 -36.5t37.5 -105.5zM433 312q-27 -1 -55 -3
q-25 -2 -54 -4t-57 -4q-41 -2 -83 -9.5t-76.5 -24.5t-56 -46.5t-21.5 -76.5q0 -67 40 -110.5t118 -43.5q86 0 137.5 23.5t78.5 60t35 81t8 85.5h-6.5h-14.5h-19q0 -34 -6.5 -68.5t-26.5 -62.5t-58.5 -45.5t-103.5 -17.5q-59 0 -90.5 20t-31.5 74q0 30 15 49t40.5 30
t57.5 15.5t66 6.5q22 2 50.5 4t53.5 4t42.5 3l17.5 1v59zM103 620h330v60h-330v-60z" />
    <glyph glyph-name="Abreve" unicode="&#x102;" horiz-adv-x="602" 
d="M137 187h295v60h-295v-60zM30 0h63l192 585l31 95h-31h-32zM317 680h-32h-31l31 -95l192 -585h63zM121 860h60q0 -38 30 -56.5t74 -18.5t75 19t31 56h59q0 -55 -43.5 -92.5t-121.5 -37.5q-77 0 -120.5 37.5t-43.5 92.5z" />
    <glyph glyph-name="abreve" unicode="&#x103;" 
d="M407 308v-207q0 -25 1.5 -43.5t8.5 -31.5t21.5 -19.5t41.5 -6.5h19v70h-32v223q0 47 -12 87t-36 69t-61.5 45t-89.5 16q-53 0 -93.5 -17t-67.5 -44t-40.5 -60t-13.5 -65h60q0 29 13 52t34.5 39.5t48.5 25.5t55 9q68 0 105.5 -36.5t37.5 -105.5zM433 312q-27 -1 -55 -3
q-25 -2 -54 -4t-57 -4q-41 -2 -83 -9.5t-76.5 -24.5t-56 -46.5t-21.5 -76.5q0 -67 40 -110.5t118 -43.5q86 0 137.5 23.5t78.5 60t35 81t8 85.5h-6.5h-14.5h-19q0 -34 -6.5 -68.5t-26.5 -62.5t-58.5 -45.5t-103.5 -17.5q-59 0 -90.5 20t-31.5 74q0 30 15 49t40.5 30
t57.5 15.5t66 6.5q22 2 50.5 4t53.5 4t42.5 3l17.5 1v59zM103 680h60q0 -38 30 -56.5t74 -18.5t75 19t31 56h59q0 -55 -43.5 -92.5t-121.5 -37.5q-77 0 -120.5 37.5t-43.5 92.5z" />
    <glyph glyph-name="Aogonek" unicode="&#x104;" horiz-adv-x="602" 
d="M137 187h295v60h-295v-60zM30 0h63l192 585l31 95h-31h-32zM317 680h-32h-31l31 -95l192 -585h63zM500 2q8 0 22 -1t18 -1q-62 -24 -89 -44.5t-27 -40.5q0 -9 2.5 -16t8 -11.5t14 -7t19.5 -1.5h72v-70h-15.5h-34.5h-34.5h-15.5q-45 0 -67 18t-22 55q0 17 12 33.5t32 32.5
t47 30t58 24z" />
    <glyph glyph-name="aogonek" unicode="&#x105;" 
d="M407 308v-207q0 -25 1.5 -43.5t8.5 -31.5t21.5 -19.5t41.5 -6.5h19v70h-32v223q0 47 -12 87t-36 69t-61.5 45t-89.5 16q-53 0 -93.5 -17t-67.5 -44t-40.5 -60t-13.5 -65h60q0 29 13 52t34.5 39.5t48.5 25.5t55 9q68 0 105.5 -36.5t37.5 -105.5zM433 312q-27 -1 -55 -3
q-25 -2 -54 -4t-57 -4q-41 -2 -83 -9.5t-76.5 -24.5t-56 -46.5t-21.5 -76.5q0 -67 40 -110.5t118 -43.5q86 0 137.5 23.5t78.5 60t35 81t8 85.5h-6.5h-14.5h-19q0 -34 -6.5 -68.5t-26.5 -62.5t-58.5 -45.5t-103.5 -17.5q-59 0 -90.5 20t-31.5 74q0 30 15 49t40.5 30
t57.5 15.5t66 6.5q22 2 50.5 4t53.5 4t42.5 3l17.5 1v59zM459 2q8 0 22 -1t18 -1q-62 -24 -89 -44.5t-27 -40.5q0 -9 2.5 -16t8 -11.5t14 -7t19.5 -1.5h72v-70h-15.5h-34.5h-34.5h-15.5q-45 0 -67 18t-22 55q0 17 12 33.5t32 32.5t47 30t58 24z" />
    <glyph glyph-name="Cacute" unicode="&#x106;" horiz-adv-x="632" 
d="M540 255q-5 -61 -23.5 -110t-50.5 -83.5t-77 -53t-103 -18.5q-62 0 -110 21.5t-80 61.5t-48.5 96t-16.5 126v90q0 70 16.5 126.5t48.5 96t80 61t110 21.5q116 0 180 -71.5t74 -193.5h-60q-4 46 -17 83.5t-36.5 64.5t-58.5 42t-82 15q-52 0 -89 -18t-61 -50.5t-35 -77.5
t-11 -99v-90q0 -54 11 -99t35 -77.5t61 -50.5t89 -18q47 0 82 15t58.5 42t36.5 64.5t17 83.5h60zM310 876h83v-17l-98 -129h-57z" />
    <glyph glyph-name="cacute" unicode="&#x107;" horiz-adv-x="523" 
d="M493 184q-17 -92 -76 -143t-153 -51q-109 0 -171.5 69t-62.5 191q0 121 62.5 190.5t171.5 69.5q92 0 151 -49t77 -137h-61q-14 64 -55.5 95t-111.5 31q-87 0 -130.5 -50t-43.5 -150q0 -101 43.5 -150.5t130.5 -49.5q73 0 114.5 33t54.5 101h60zM256 697h83v-17l-98 -129
h-57z" />
    <glyph glyph-name="Ccircumflex" unicode="&#x108;" horiz-adv-x="632" 
d="M540 255q-5 -61 -23.5 -110t-50.5 -83.5t-77 -53t-103 -18.5q-62 0 -110 21.5t-80 61.5t-48.5 96t-16.5 126v90q0 70 16.5 126.5t48.5 96t80 61t110 21.5q116 0 180 -71.5t74 -193.5h-60q-4 46 -17 83.5t-36.5 64.5t-58.5 42t-82 15q-52 0 -89 -18t-61 -50.5t-35 -77.5
t-11 -99v-90q0 -54 11 -99t35 -77.5t61 -50.5t89 -18q47 0 82 15t58.5 42t36.5 64.5t17 83.5h60zM230 876h84v-17l-98 -129h-57zM342 876l72 -146h-57l-98 129v17h83z" />
    <glyph glyph-name="ccircumflex" unicode="&#x109;" horiz-adv-x="523" 
d="M493 184q-17 -92 -76 -143t-153 -51q-109 0 -171.5 69t-62.5 191q0 121 62.5 190.5t171.5 69.5q92 0 151 -49t77 -137h-61q-14 64 -55.5 95t-111.5 31q-87 0 -130.5 -50t-43.5 -150q0 -101 43.5 -150.5t130.5 -49.5q73 0 114.5 33t54.5 101h60zM208 697h84v-17l-98 -129
h-57zM320 697l72 -146h-57l-98 129v17h83z" />
    <glyph glyph-name="Cdotaccent" unicode="&#x10a;" horiz-adv-x="632" 
d="M540 255q-5 -61 -23.5 -110t-50.5 -83.5t-77 -53t-103 -18.5q-62 0 -110 21.5t-80 61.5t-48.5 96t-16.5 126v90q0 70 16.5 126.5t48.5 96t80 61t110 21.5q116 0 180 -71.5t74 -193.5h-60q-4 46 -17 83.5t-36.5 64.5t-58.5 42t-82 15q-52 0 -89 -18t-61 -50.5t-35 -77.5
t-11 -99v-90q0 -54 11 -99t35 -77.5t61 -50.5t89 -18q47 0 82 15t58.5 42t36.5 64.5t17 83.5h60zM241 730h90v97h-90v-97z" />
    <glyph glyph-name="cdotaccent" unicode="&#x10b;" horiz-adv-x="523" 
d="M493 184q-17 -92 -76 -143t-153 -51q-109 0 -171.5 69t-62.5 191q0 121 62.5 190.5t171.5 69.5q92 0 151 -49t77 -137h-61q-14 64 -55.5 95t-111.5 31q-87 0 -130.5 -50t-43.5 -150q0 -101 43.5 -150.5t130.5 -49.5q73 0 114.5 33t54.5 101h60zM216 583h90v97h-90v-97z
" />
    <glyph glyph-name="Ccaron" unicode="&#x10c;" horiz-adv-x="632" 
d="M540 255q-5 -61 -23.5 -110t-50.5 -83.5t-77 -53t-103 -18.5q-62 0 -110 21.5t-80 61.5t-48.5 96t-16.5 126v90q0 70 16.5 126.5t48.5 96t80 61t110 21.5q116 0 180 -71.5t74 -193.5h-60q-4 46 -17 83.5t-36.5 64.5t-58.5 42t-82 15q-52 0 -89 -18t-61 -50.5t-35 -77.5
t-11 -99v-90q0 -54 11 -99t35 -77.5t61 -50.5t89 -18q47 0 82 15t58.5 42t36.5 64.5t17 83.5h60zM230 730h84v17l-98 129h-57zM342 730l72 146h-57l-98 -129v-17h83z" />
    <glyph glyph-name="ccaron" unicode="&#x10d;" horiz-adv-x="523" 
d="M493 184q-17 -92 -76 -143t-153 -51q-109 0 -171.5 69t-62.5 191q0 121 62.5 190.5t171.5 69.5q92 0 151 -49t77 -137h-61q-14 64 -55.5 95t-111.5 31q-87 0 -130.5 -50t-43.5 -150q0 -101 43.5 -150.5t130.5 -49.5q73 0 114.5 33t54.5 101h60zM208 551h84v17l-98 129
h-57zM320 551l72 146h-57l-98 -129v-17h83z" />
    <glyph glyph-name="Dcaron" unicode="&#x10e;" horiz-adv-x="730" 
d="M30 0h60v680h-60v-680zM76 0h178q58 0 110 19.5t91 60.5t62 105t23 153t-23 153.5t-62 106.5t-91 62t-110 20h-178v-60h163q121 0 181 -71.5t60 -210.5t-60 -208.5t-181 -69.5h-163v-60zM198 730h84v17l-98 129h-57zM310 730l72 146h-57l-98 -129v-17h83z" />
    <glyph glyph-name="dcaron" unicode="&#x10f;" horiz-adv-x="722" 
d="M459 250q0 -54 -10.5 -101.5t-35 -83t-65.5 -55.5t-103 -20q-47 0 -86.5 18t-68 52t-44.5 82t-16 108q0 61 16 109t44.5 81.5t68 51.5t86.5 18q62 0 103 -20t66 -55t35 -82.5t10 -102.5zM439 250q0 101 -43 150.5t-131 49.5t-131.5 -49.5t-43.5 -150.5t43.5 -150.5
t131.5 -49.5q87 0 130.5 50t43.5 150zM499 0h-60v147v107v100v376h60v-730zM560 548h132v132h-132v-132zM692 548v19h-71v-19l-47 -118h41z" />
    <glyph glyph-name="dcroat" unicode="&#x111;" horiz-adv-x="530" 
d="M459 250q0 -54 -10.5 -101.5t-35 -83t-65.5 -55.5t-103 -20q-47 0 -86.5 18t-68 52t-44.5 82t-16 108q0 61 16 109t44.5 81.5t68 51.5t86.5 18q62 0 103 -20t66 -55t35 -82.5t10 -102.5zM439 250q0 101 -43 150.5t-131 49.5t-131.5 -49.5t-43.5 -150.5t43.5 -150.5
t131.5 -49.5q87 0 130.5 50t43.5 150zM499 0h-60v147v107v100v376h60v-730zM239 620h330v60h-330v-60z" />
    <glyph glyph-name="Emacron" unicode="&#x112;" 
d="M30 0h60v680h-60v-680zM76 620h418v60h-418v-60zM76 0h418v60h-418v-60zM76 310h378v60h-378v-60zM98 730h330v60h-330v-60z" />
    <glyph glyph-name="emacron" unicode="&#x113;" horiz-adv-x="529" 
d="M75 234h424v16l-49 44h-375v-60zM432 176q-14 -64 -56 -95t-112 -31q-87 0 -130.5 49.5t-43.5 150.5q0 100 43.5 150t130.5 50q89 0 132 -49.5t43 -150.5h60q0 121 -62.5 190.5t-172.5 69.5q-109 0 -171.5 -69.5t-62.5 -190.5q0 -122 62.5 -191t171.5 -69q92 0 151 49
t77 137h-60zM99 620h330v60h-330v-60z" />
    <glyph glyph-name="Ebreve" unicode="&#x114;" 
d="M30 0h60v680h-60v-680zM76 620h418v60h-418v-60zM76 0h418v60h-418v-60zM76 310h378v60h-378v-60zM97 860h60q0 -38 30 -56.5t74 -18.5t75 19t31 56h59q0 -55 -43.5 -92.5t-121.5 -37.5q-77 0 -120.5 37.5t-43.5 92.5z" />
    <glyph glyph-name="ebreve" unicode="&#x115;" horiz-adv-x="529" 
d="M75 234h424v16l-49 44h-375v-60zM432 176q-14 -64 -56 -95t-112 -31q-87 0 -130.5 49.5t-43.5 150.5q0 100 43.5 150t130.5 50q89 0 132 -49.5t43 -150.5h60q0 121 -62.5 190.5t-172.5 69.5q-109 0 -171.5 -69.5t-62.5 -190.5q0 -122 62.5 -191t171.5 -69q92 0 151 49
t77 137h-60zM98 680h60q0 -38 30 -56.5t74 -18.5t75 19t31 56h59q0 -55 -43.5 -92.5t-121.5 -37.5q-77 0 -120.5 37.5t-43.5 92.5z" />
    <glyph glyph-name="Edotaccent" unicode="&#x116;" 
d="M30 0h60v680h-60v-680zM76 620h418v60h-418v-60zM76 0h418v60h-418v-60zM76 310h378v60h-378v-60zM240 730h90v97h-90v-97z" />
    <glyph glyph-name="edotaccent" unicode="&#x117;" horiz-adv-x="529" 
d="M75 234h424v16l-49 44h-375v-60zM432 176q-14 -64 -56 -95t-112 -31q-87 0 -130.5 49.5t-43.5 150.5q0 100 43.5 150t130.5 50q89 0 132 -49.5t43 -150.5h60q0 121 -62.5 190.5t-172.5 69.5q-109 0 -171.5 -69.5t-62.5 -190.5q0 -122 62.5 -191t171.5 -69q92 0 151 49
t77 137h-60zM219 583h90v97h-90v-97z" />
    <glyph glyph-name="Eogonek" unicode="&#x118;" 
d="M30 0h60v680h-60v-680zM76 620h418v60h-418v-60zM76 0h418v60h-418v-60zM76 310h378v60h-378v-60z" />
    <glyph glyph-name="eogonek" unicode="&#x119;" horiz-adv-x="529" 
d="M75 234h424v16l-49 44h-375v-60zM432 176q-14 -64 -56 -95t-112 -31q-87 0 -130.5 49.5t-43.5 150.5q0 100 43.5 150t130.5 50q89 0 132 -49.5t43 -150.5h60q0 121 -62.5 190.5t-172.5 69.5q-109 0 -171.5 -69.5t-62.5 -190.5q0 -122 62.5 -191t171.5 -69q92 0 151 49
t77 137h-60zM298 3q8 0 22 -1t18 -1q-62 -24 -89 -44.5t-27 -40.5q0 -9 2.5 -16t8 -11.5t14 -7t19.5 -1.5h72v-70h-15.5h-34.5h-34.5h-15.5q-45 0 -67 18t-22 55q0 17 12 33.5t32 32.5t47 30t58 24z" />
    <glyph glyph-name="Ecaron" unicode="&#x11a;" 
d="M30 0h60v680h-60v-680zM76 620h418v60h-418v-60zM76 0h418v60h-418v-60zM76 310h378v60h-378v-60zM229 730h84v17l-98 129h-57zM341 730l72 146h-57l-98 -129v-17h83z" />
    <glyph glyph-name="ecaron" unicode="&#x11b;" horiz-adv-x="529" 
d="M75 234h424v16l-49 44h-375v-60zM432 176q-14 -64 -56 -95t-112 -31q-87 0 -130.5 49.5t-43.5 150.5q0 100 43.5 150t130.5 50q89 0 132 -49.5t43 -150.5h60q0 121 -62.5 190.5t-172.5 69.5q-109 0 -171.5 -69.5t-62.5 -190.5q0 -122 62.5 -191t171.5 -69q92 0 151 49
t77 137h-60zM207 551h84v17l-98 129h-57zM319 551l72 146h-57l-98 -129v-17h83z" />
    <glyph glyph-name="Gcircumflex" unicode="&#x11c;" horiz-adv-x="567" 
d="M312 247h228v50h-228v-50zM480 0h60v287h-60v-287zM480 255q-4 -46 -17 -83.5t-36.5 -64.5t-58.5 -42t-82 -15q-52 0 -89 18t-61 50.5t-35 77.5t-11 99v90q0 54 11 99t35 77.5t61 50.5t89 18q47 0 82 -15t58.5 -42t36.5 -64.5t17 -83.5h60q-10 122 -74 193.5t-180 71.5
q-62 0 -110 -21.5t-80 -61t-48.5 -96t-16.5 -126.5v-90q0 -70 16.5 -126t48.5 -96t80 -61.5t110 -21.5q58 0 98.5 19t66 53.5t37.5 83.5t12 109h-20zM230 876h84v-17l-98 -129h-57zM342 876l72 -146h-57l-98 129v17h83z" />
    <glyph glyph-name="gcircumflex" unicode="&#x11d;" horiz-adv-x="530" 
d="M439 146v100v107v147h60v-537q0 -80 -33 -116.5t-106 -36.5h-280v60h309q17 0 27 1.5t15 7t6.5 16t1.5 27.5v224zM30 250q0 60 16 108t44.5 82t68 52t86.5 18q62 0 103 -20t65.5 -55.5t35 -83t10.5 -101.5q0 -55 -10 -102.5t-35 -82.5t-66 -55t-103 -20q-47 0 -86.5 18
t-68 51.5t-44.5 81.5t-16 109zM90 250q0 -101 43.5 -150.5t131.5 -49.5t131 49.5t43 150.5q0 100 -43.5 150t-130.5 50q-88 0 -131.5 -49.5t-43.5 -150.5zM243 697h84v-17l-98 -129h-57zM355 697l72 -146h-57l-98 129v17h83z" />
    <glyph glyph-name="Gbreve" unicode="&#x11e;" horiz-adv-x="567" 
d="M312 247h228v50h-228v-50zM480 0h60v287h-60v-287zM480 255q-4 -46 -17 -83.5t-36.5 -64.5t-58.5 -42t-82 -15q-52 0 -89 18t-61 50.5t-35 77.5t-11 99v90q0 54 11 99t35 77.5t61 50.5t89 18q47 0 82 -15t58.5 -42t36.5 -64.5t17 -83.5h60q-10 122 -74 193.5t-180 71.5
q-62 0 -110 -21.5t-80 -61t-48.5 -96t-16.5 -126.5v-90q0 -70 16.5 -126t48.5 -96t80 -61.5t110 -21.5q58 0 98.5 19t66 53.5t37.5 83.5t12 109h-20zM121 820h60q0 -38 30 -56.5t74 -18.5t75 19t31 56h59q0 -55 -43.5 -92.5t-121.5 -37.5q-77 0 -120.5 37.5t-43.5 92.5z" />
    <glyph glyph-name="gbreve" unicode="&#x11f;" horiz-adv-x="530" 
d="M439 146v100v107v147h60v-537q0 -80 -33 -116.5t-106 -36.5h-280v60h309q17 0 27 1.5t15 7t6.5 16t1.5 27.5v224zM30 250q0 60 16 108t44.5 82t68 52t86.5 18q62 0 103 -20t65.5 -55.5t35 -83t10.5 -101.5q0 -55 -10 -102.5t-35 -82.5t-66 -55t-103 -20q-47 0 -86.5 18
t-68 51.5t-44.5 81.5t-16 109zM90 250q0 -101 43.5 -150.5t131.5 -49.5t131 49.5t43 150.5q0 100 -43.5 150t-130.5 50q-88 0 -131.5 -49.5t-43.5 -150.5zM109 680h60q0 -38 30 -56.5t74 -18.5t75 19t31 56h59q0 -55 -43.5 -92.5t-121.5 -37.5q-77 0 -120.5 37.5t-43.5 92.5
z" />
    <glyph glyph-name="Gdotaccent" unicode="&#x120;" horiz-adv-x="567" 
d="M312 247h228v50h-228v-50zM480 0h60v287h-60v-287zM480 255q-4 -46 -17 -83.5t-36.5 -64.5t-58.5 -42t-82 -15q-52 0 -89 18t-61 50.5t-35 77.5t-11 99v90q0 54 11 99t35 77.5t61 50.5t89 18q47 0 82 -15t58.5 -42t36.5 -64.5t17 -83.5h60q-10 122 -74 193.5t-180 71.5
q-62 0 -110 -21.5t-80 -61t-48.5 -96t-16.5 -126.5v-90q0 -70 16.5 -126t48.5 -96t80 -61.5t110 -21.5q58 0 98.5 19t66 53.5t37.5 83.5t12 109h-20zM241 720h90v97h-90v-97z" />
    <glyph glyph-name="gdotaccent" unicode="&#x121;" horiz-adv-x="530" 
d="M439 146v100v107v147h60v-537q0 -80 -33 -116.5t-106 -36.5h-280v60h309q17 0 27 1.5t15 7t6.5 16t1.5 27.5v224zM30 250q0 60 16 108t44.5 82t68 52t86.5 18q62 0 103 -20t65.5 -55.5t35 -83t10.5 -101.5q0 -55 -10 -102.5t-35 -82.5t-66 -55t-103 -20q-47 0 -86.5 18
t-68 51.5t-44.5 81.5t-16 109zM90 250q0 -101 43.5 -150.5t131.5 -49.5t131 49.5t43 150.5q0 100 -43.5 150t-130.5 50q-88 0 -131.5 -49.5t-43.5 -150.5zM235 583h90v97h-90v-97z" />
    <glyph glyph-name="uni0122" unicode="&#x122;" horiz-adv-x="567" 
d="M312 247h228v50h-228v-50zM480 0h60v287h-60v-287zM480 255q-4 -46 -17 -83.5t-36.5 -64.5t-58.5 -42t-82 -15q-52 0 -89 18t-61 50.5t-35 77.5t-11 99v90q0 54 11 99t35 77.5t61 50.5t89 18q47 0 82 -15t58.5 -42t36.5 -64.5t17 -83.5h60q-10 122 -74 193.5t-180 71.5
q-62 0 -110 -21.5t-80 -61t-48.5 -96t-16.5 -126.5v-90q0 -70 16.5 -126t48.5 -96t80 -61.5t110 -21.5q58 0 98.5 19t66 53.5t37.5 83.5t12 109h-20z" />
    <glyph glyph-name="uni0123" unicode="&#x123;" horiz-adv-x="530" 
d="M439 146v100v107v147h60v-537q0 -80 -33 -116.5t-106 -36.5h-280v60h309q17 0 27 1.5t15 7t6.5 16t1.5 27.5v224zM30 250q0 60 16 108t44.5 82t68 52t86.5 18q62 0 103 -20t65.5 -55.5t35 -83t10.5 -101.5q0 -55 -10 -102.5t-35 -82.5t-66 -55t-103 -20q-47 0 -86.5 18
t-68 51.5t-44.5 81.5t-16 109zM90 250q0 -101 43.5 -150.5t131.5 -49.5t131 49.5t43 150.5q0 100 -43.5 150t-130.5 50q-88 0 -131.5 -49.5t-43.5 -150.5zM346 730h-132v-131h132v131zM214 730v-19h71v19l47 119h-41z" />
    <glyph glyph-name="Hcircumflex" unicode="&#x124;" 
d="M30 0h60v680h-60v-680zM480 0h60v680h-60v-680zM76 322h418v60h-418v-60zM229 876h84v-17l-98 -129h-57zM341 876l72 -146h-57l-98 129v17h83z" />
    <glyph glyph-name="hcircumflex" unicode="&#x125;" horiz-adv-x="529" 
d="M30 0h60v730h-60v-730zM76 298l14 -89q0 70 14.5 117t39 76t56 41t66.5 12q54 0 87.5 -17t53 -46.5t26 -69t6.5 -83.5v-239h60v254q0 56 -13 103t-39.5 81t-66.5 53t-94 19q-97 0 -149.5 -54.5t-60.5 -157.5zM4 906h84v-17l-98 -129h-57zM116 906l72 -146h-57l-98 129v17
h83z" />
    <glyph glyph-name="hbar" unicode="&#x127;" horiz-adv-x="529" 
d="M30 0h60v730h-60v-730zM76 298l14 -89q0 70 14.5 117t39 76t56 41t66.5 12q54 0 87.5 -17t53 -46.5t26 -69t6.5 -83.5v-239h60v254q0 56 -13 103t-39.5 81t-66.5 53t-94 19q-97 0 -149.5 -54.5t-60.5 -157.5zM-40 620h330v60h-330v-60z" />
    <glyph glyph-name="Itilde" unicode="&#x128;" 
d="M30 0h510v60h-510v-60zM30 620h510v60h-510v-60zM255 33h60v617h-60v-617zM98 730q0 48 25 80t75 32q34 0 55.5 -10t39 -22.5t34.5 -22.5t41 -10q22 0 33.5 14t11.5 41h60q0 -48 -25 -80t-75 -32q-34 0 -55.5 10t-39 22.5t-34.5 22.5t-41 10q-22 0 -33.5 -14t-11.5 -41
h-60z" />
    <glyph glyph-name="Imacron" unicode="&#x12a;" 
d="M30 0h510v60h-510v-60zM30 620h510v60h-510v-60zM255 33h60v617h-60v-617zM120 730h330v60h-330v-60z" />
    <glyph glyph-name="Ibreve" unicode="&#x12c;" 
d="M30 0h510v60h-510v-60zM30 620h510v60h-510v-60zM255 33h60v617h-60v-617zM119 860h60q0 -38 30 -56.5t74 -18.5t75 19t31 56h59q0 -55 -43.5 -92.5t-121.5 -37.5q-77 0 -120.5 37.5t-43.5 92.5z" />
    <glyph glyph-name="Iogonek" unicode="&#x12e;" 
d="M30 0h510v60h-510v-60zM30 620h510v60h-510v-60zM255 33h60v617h-60v-617zM500 2q8 0 22 -1t18 -1q-62 -24 -89 -44.5t-27 -40.5q0 -9 2.5 -16t8 -11.5t14 -7t19.5 -1.5h72v-70h-15.5h-34.5h-34.5h-15.5q-45 0 -67 18t-22 55q0 17 12 33.5t32 32.5t47 30t58 24z" />
    <glyph glyph-name="iogonek" unicode="&#x12f;" horiz-adv-x="532" 
d="M31 0h470v60h-470v-60zM296 36v310q0 81 -33.5 117.5t-106.5 36.5h-125v-60h155q17 0 26.5 -1.5t15 -7t7 -16t1.5 -28.5v-351h60zM221 553h90v97h-90v-97zM432 0q-60 -24 -89.5 -54.5t-29.5 -63.5q0 -37 22 -55t67 -18h99v70h-71q-22 -1 -33.5 8t-11.5 28q0 20 27 40.5
t89 44.5h-69z" />
    <glyph glyph-name="Idotaccent" unicode="&#x130;" 
d="M30 0h510v60h-510v-60zM30 620h510v60h-510v-60zM255 33h60v617h-60v-617zM240 730h90v97h-90v-97z" />
    <glyph glyph-name="dotlessi" unicode="&#x131;" horiz-adv-x="258" 
 />
    <glyph glyph-name="Jcircumflex" unicode="&#x134;" 
d="M90 261q0 -45 13.5 -84t38.5 -67t60 -44t78 -16t79.5 15.5t63.5 43.5t42 67t15 85v419h60v-419q0 -58 -19.5 -107.5t-54 -86t-82 -57t-103.5 -20.5t-102 20.5t-79 57t-51.5 86t-18.5 107.5h60zM159 680h346v-60h-346v60zM296 876h84v-17l-98 -129h-57zM408 876l72 -146
h-57l-98 129v17h83z" />
    <glyph glyph-name="jcircumflex" unicode="&#x135;" horiz-adv-x="347" 
d="M317 499v-535q0 -81 -33.5 -117.5t-106.5 -36.5h-146v60h176q17 0 26.5 1.5t15 7t7 16t1.5 28.5v576h60zM31 439v60h254v-60h-254zM234 697h83v-17l-98 -129h-57zM262 697h84l71 -146h-57l-98 129v17z" />
    <glyph glyph-name="Lacute" unicode="&#x139;" horiz-adv-x="524" 
d="M30 0h60v680h-60v-680zM76 0h388v60h-388v-60zM105 876h83v-17l-98 -129h-57z" />
    <glyph glyph-name="lacute" unicode="&#x13a;" horiz-adv-x="553" 
d="M52 0h470v60h-470v-60zM317 36v540q0 81 -33.5 117.5t-106.5 36.5h-146v-60h176q17 0 26.5 -1.5t15 -7t7 -16t1.5 -28.5v-581h60zM271 730h83v-17l-98 -129h-57z" />
    <glyph glyph-name="Lcaron" unicode="&#x13d;" horiz-adv-x="524" 
d="M30 0h60v680h-60v-680zM76 0h388v60h-388v-60zM196 730h132v132h-132v-132zM328 730v19h-71v-19l-47 -118h41z" />
    <glyph glyph-name="lcaron" unicode="&#x13e;" horiz-adv-x="745" 
d="M52 0h470v60h-470v-60zM317 36v540q0 81 -33.5 117.5t-106.5 36.5h-146v-60h176q17 0 26.5 -1.5t15 -7t7 -16t1.5 -28.5v-581h60zM372 730h132v132h-132v-132zM504 730v19h-71v-19l-47 -118h41z" />
    <glyph glyph-name="Lslash" unicode="&#x141;" horiz-adv-x="524" 
d="M30 0h60v680h-60v-680zM76 0h388v60h-388v-60zM-92.125 122.462l432.491 270.253l-31.791 50.8809l-432.491 -270.252z" />
    <glyph glyph-name="lslash" unicode="&#x142;" horiz-adv-x="553" 
d="M52 0h470v60h-470v-60zM317 36v540q0 81 -33.5 117.5t-106.5 36.5h-146v-60h176q17 0 26.5 -1.5t15 -7t7 -16t1.5 -28.5v-581h60zM98.875 164.462l432.491 270.253l-31.791 50.8809l-432.491 -270.252z" />
    <glyph glyph-name="Nacute" unicode="&#x143;" horiz-adv-x="650" 
d="M30 0h60v680h-60v-680zM560 0h60v680h-60v-680zM620 0v21l-530 659h-60v-21l530 -659h60zM345 876h83v-17l-98 -129h-57z" />
    <glyph glyph-name="nacute" unicode="&#x144;" horiz-adv-x="529" 
d="M77 298l13 -89q0 70 14.5 117t39 75.5t56 41t66.5 12.5q50 0 83.5 -14.5t54 -42.5t28.5 -68.5t8 -90.5v-239h60v254q0 56 -13.5 103t-40 81t-66.5 53t-94 19q-97 0 -149.5 -54.5t-59.5 -157.5zM30 0h60v500h-60v-500zM281 697h83v-17l-98 -129h-57z" />
    <glyph glyph-name="Ncaron" unicode="&#x147;" horiz-adv-x="650" 
d="M30 0h60v680h-60v-680zM560 0h60v680h-60v-680zM620 0v21l-530 659h-60v-21l530 -659h60zM269 730h84v17l-98 129h-57zM381 730l72 146h-57l-98 -129v-17h83z" />
    <glyph glyph-name="ncaron" unicode="&#x148;" horiz-adv-x="529" 
d="M77 298l13 -89q0 70 14.5 117t39 75.5t56 41t66.5 12.5q50 0 83.5 -14.5t54 -42.5t28.5 -68.5t8 -90.5v-239h60v254q0 56 -13.5 103t-40 81t-66.5 53t-94 19q-97 0 -149.5 -54.5t-59.5 -157.5zM30 0h60v500h-60v-500zM218 551h84v17l-98 129h-57zM330 551l72 146h-57
l-98 -129v-17h83z" />
    <glyph glyph-name="Eng" unicode="&#x14a;" horiz-adv-x="650" 
d="M30 0h60v680h-60v-680zM560 0h60v680h-60v-680zM620 0v21l-530 659h-60v-21l530 -659h60zM560 499v-576q0 -18 -1.5 -28.5t-7 -16t-15 -7t-26.5 -1.5h-176v-60h146q73 0 106.5 36.5t33.5 117.5v535h-60z" />
    <glyph glyph-name="eng" unicode="&#x14b;" horiz-adv-x="618" 
d="M77 298l13 -89q0 70 14.5 117t39 75.5t56 41t66.5 12.5q50 0 83.5 -14.5t54 -42.5t28.5 -68.5t8 -90.5v-239h60v254q0 56 -13.5 103t-40 81t-66.5 53t-94 19q-97 0 -149.5 -54.5t-59.5 -157.5zM30 0h60v500h-60v-500zM440 169v-246q0 -18 -1.5 -28.5t-7 -16t-15 -7
t-26.5 -1.5h-176v-60h146q73 0 106.5 36.5t33.5 117.5v205h-60z" />
    <glyph glyph-name="Omacron" unicode="&#x14c;" horiz-adv-x="571" 
d="M31 385v-90q0 -70 16.5 -126t48.5 -96t80 -61.5t110 -21.5t109.5 21.5t80 61.5t49 96.5t16.5 125.5v90q0 70 -16.5 126.5t-49 96t-80 61t-109.5 21.5t-110 -21.5t-80 -61t-48.5 -96t-16.5 -126.5zM90 385q0 54 11 99t35 77.5t61 50.5t89 18t89 -18t60.5 -50.5t34.5 -77.5
t11 -99v-90q0 -54 -11 -99t-34.5 -77.5t-60.5 -50.5t-89 -18t-89 18t-61 50.5t-35 77.5t-11 99v90zM121 730h330v60h-330v-60z" />
    <glyph glyph-name="omacron" unicode="&#x14d;" horiz-adv-x="530" 
d="M499 250q0 121 -62.5 190.5t-172.5 69.5q-109 0 -171.5 -69.5t-62.5 -190.5q0 -122 62.5 -191t171.5 -69q110 0 172.5 69t62.5 191zM439 250q0 -101 -43 -150.5t-132 -49.5q-87 0 -130.5 49.5t-43.5 150.5q0 100 43.5 150t130.5 50q89 0 132 -49.5t43 -150.5zM100 620
h330v60h-330v-60z" />
    <glyph glyph-name="Obreve" unicode="&#x14e;" horiz-adv-x="571" 
d="M31 385v-90q0 -70 16.5 -126t48.5 -96t80 -61.5t110 -21.5t109.5 21.5t80 61.5t49 96.5t16.5 125.5v90q0 70 -16.5 126.5t-49 96t-80 61t-109.5 21.5t-110 -21.5t-80 -61t-48.5 -96t-16.5 -126.5zM90 385q0 54 11 99t35 77.5t61 50.5t89 18t89 -18t60.5 -50.5t34.5 -77.5
t11 -99v-90q0 -54 -11 -99t-34.5 -77.5t-60.5 -50.5t-89 -18t-89 18t-61 50.5t-35 77.5t-11 99v90zM122 850h60q0 -38 30 -56.5t74 -18.5t75 19t31 56h59q0 -55 -43.5 -92.5t-121.5 -37.5q-77 0 -120.5 37.5t-43.5 92.5z" />
    <glyph glyph-name="obreve" unicode="&#x14f;" horiz-adv-x="530" 
d="M499 250q0 121 -62.5 190.5t-172.5 69.5q-109 0 -171.5 -69.5t-62.5 -190.5q0 -122 62.5 -191t171.5 -69q110 0 172.5 69t62.5 191zM439 250q0 -101 -43 -150.5t-132 -49.5q-87 0 -130.5 49.5t-43.5 150.5q0 100 43.5 150t130.5 50q89 0 132 -49.5t43 -150.5zM100 680h60
q0 -38 30 -56.5t74 -18.5t75 19t31 56h59q0 -55 -43.5 -92.5t-121.5 -37.5q-77 0 -120.5 37.5t-43.5 92.5z" />
    <glyph glyph-name="Ohungarumlaut" unicode="&#x150;" horiz-adv-x="571" 
d="M31 385v-90q0 -70 16.5 -126t48.5 -96t80 -61.5t110 -21.5t109.5 21.5t80 61.5t49 96.5t16.5 125.5v90q0 70 -16.5 126.5t-49 96t-80 61t-109.5 21.5t-110 -21.5t-80 -61t-48.5 -96t-16.5 -126.5zM90 385q0 54 11 99t35 77.5t61 50.5t89 18t89 -18t60.5 -50.5t34.5 -77.5
t11 -99v-90q0 -54 -11 -99t-34.5 -77.5t-60.5 -50.5t-89 -18t-89 18t-61 50.5t-35 77.5t-11 99v90zM224 876h84v-17l-98 -129h-57zM469 876v-17l-98 -129h-57l72 146h83z" />
    <glyph glyph-name="ohungarumlaut" unicode="&#x151;" horiz-adv-x="530" 
d="M499 250q0 121 -62.5 190.5t-172.5 69.5q-109 0 -171.5 -69.5t-62.5 -190.5q0 -122 62.5 -191t171.5 -69q110 0 172.5 69t62.5 191zM439 250q0 -101 -43 -150.5t-132 -49.5q-87 0 -130.5 49.5t-43.5 150.5q0 100 43.5 150t130.5 50q89 0 132 -49.5t43 -150.5zM197 697h84
v-17l-98 -129h-57zM442 697v-17l-98 -129h-57l72 146h83z" />
    <glyph glyph-name="OE" unicode="&#x152;" horiz-adv-x="925" 
d="M30 385v-90q0 -70 16.5 -126t49 -96t80 -61.5t110.5 -21.5q62 0 106.5 21.5t73 61.5t41.5 96.5t13 125.5v90q0 70 -13 126.5t-41.5 96t-73 61t-106.5 21.5q-63 0 -110.5 -21.5t-80 -61t-49 -96t-16.5 -126.5zM90 385q0 54 11 99t34.5 77.5t60.5 50.5t90 18q52 0 89 -18
t60.5 -50.5t34.5 -77.5t11 -99v-90q0 -54 -11 -99t-34.5 -77.5t-60.5 -50.5t-89 -18q-53 0 -90 18t-60.5 50.5t-34.5 77.5t-11 99v90zM481 0h60v680h-60v-680zM527 620h368v60h-368v-60zM527 0h368v60h-368v-60zM527 310h328v60h-328v-60z" />
    <glyph glyph-name="oe" unicode="&#x153;" horiz-adv-x="939" 
d="M499 250q0 121 -62.5 190.5t-172.5 69.5q-109 0 -171.5 -69.5t-62.5 -190.5q0 -122 62.5 -191t171.5 -69q110 0 172.5 69t62.5 191zM439 250q0 -101 -43 -150.5t-132 -49.5q-87 0 -130.5 49.5t-43.5 150.5q0 100 43.5 150t130.5 50q89 0 132 -49.5t43 -150.5zM484 234
h424v16l-49 44h-375v-60zM841 176q-14 -64 -56 -95t-112 -31q-87 0 -130.5 49.5t-43.5 150.5q0 100 43.5 150t130.5 50q89 0 132 -49.5t43 -150.5h60q0 121 -62.5 190.5t-172.5 69.5q-109 0 -171.5 -69.5t-62.5 -190.5q0 -122 62.5 -191t171.5 -69q92 0 151 49t77 137h-60z
" />
    <glyph glyph-name="Racute" unicode="&#x154;" horiz-adv-x="622" 
d="M550 0h-77l-230 286h77zM30 680h60v-680h-60v680zM76 330h239q77 0 121 35.5t44 106.5q0 69 -44 108.5t-121 39.5h-239v60h254q44 0 82 -16t66.5 -44.5t45 -66t16.5 -81.5q0 -43 -16 -80t-44.5 -64t-66.5 -42.5t-83 -15.5h-254v60zM305 876h83v-17l-98 -129h-57z" />
    <glyph glyph-name="racute" unicode="&#x155;" horiz-adv-x="532" 
d="M502 0h-471v60h471v-60zM189 36v464h26h18h8l8 -146v-318h-60zM223 440h-192v60h192v-60zM410 500h92v-60h-89q-59 0 -92 -7t-49 -29.5t-19.5 -64t-3.5 -109.5l-12 64q0 56 7 95t26.5 64t53 36t86.5 11zM280 697h83v-17l-98 -129h-57z" />
    <glyph glyph-name="Rcaron" unicode="&#x158;" horiz-adv-x="622" 
d="M550 0h-77l-230 286h77zM30 680h60v-680h-60v680zM76 330h239q77 0 121 35.5t44 106.5q0 69 -44 108.5t-121 39.5h-239v60h254q44 0 82 -16t66.5 -44.5t45 -66t16.5 -81.5q0 -43 -16 -80t-44.5 -64t-66.5 -42.5t-83 -15.5h-254v60zM229 730h84v17l-98 129h-57zM341 730
l72 146h-57l-98 -129v-17h83z" />
    <glyph glyph-name="rcaron" unicode="&#x159;" horiz-adv-x="532" 
d="M502 0h-471v60h471v-60zM189 36v464h26h18h8l8 -146v-318h-60zM223 440h-192v60h192v-60zM410 500h92v-60h-89q-59 0 -92 -7t-49 -29.5t-19.5 -64t-3.5 -109.5l-12 64q0 56 7 95t26.5 64t53 36t86.5 11zM209 697.035h84v-16.998l-98 -128.992h-57zM321 697.035
l72 -145.99h-57l-98 128.992v16.998h83z" />
    <glyph glyph-name="Sacute" unicode="&#x15a;" horiz-adv-x="549" 
d="M525 441q0 50 -17 94t-48.5 76t-77.5 50.5t-103 18.5q-52 0 -96 -11t-75.5 -33t-49.5 -55.5t-18 -79.5q0 -66 32.5 -100t81.5 -50t106 -22t106 -16.5t81.5 -32.5t32.5 -71q0 -75 -47.5 -112t-143.5 -37q-91 0 -145 51t-54 138h-60q0 -50 17.5 -95.5t49.5 -79.5t78.5 -54
t103.5 -20t105 12.5t82.5 37t54 62t19.5 87.5q0 70 -32.5 106.5t-81.5 53.5t-106 22.5t-106 14.5t-81.5 29t-32.5 66q0 66 43 97.5t134 31.5q43 0 78 -12.5t59.5 -36t37.5 -56.5t13 -74h60zM291 876h83v-17l-98 -129h-57z" />
    <glyph glyph-name="sacute" unicode="&#x15b;" 
d="M460 335l60 -1q0 36 -18 66t-50 52.5t-75.5 35t-94.5 12.5q-58 0 -101.5 -9t-72.5 -27.5t-43.5 -46t-14.5 -64.5q0 -50 32 -76.5t79.5 -39.5t103.5 -17.5t103.5 -11t79.5 -21.5t32 -47q0 -49 -50.5 -64.5t-147.5 -15.5q-100 0 -146 28.5t-46 91.5h-60q0 -45 16 -78.5
t47.5 -56t79 -34t109.5 -11.5q63 0 111.5 8t81 25.5t49 46t16.5 70.5q0 47 -32 71.5t-79.5 36t-103.5 16t-103.5 12t-79.5 24.5t-32 53q0 19 10.5 33t32 24t53.5 15t76 5q39 0 71.5 -8t56.5 -21.5t37 -33t13 -42.5zM301 697h83v-17l-98 -129h-57z" />
    <glyph glyph-name="Scircumflex" unicode="&#x15c;" horiz-adv-x="549" 
d="M525 441q0 50 -17 94t-48.5 76t-77.5 50.5t-103 18.5q-52 0 -96 -11t-75.5 -33t-49.5 -55.5t-18 -79.5q0 -66 32.5 -100t81.5 -50t106 -22t106 -16.5t81.5 -32.5t32.5 -71q0 -75 -47.5 -112t-143.5 -37q-91 0 -145 51t-54 138h-60q0 -50 17.5 -95.5t49.5 -79.5t78.5 -54
t103.5 -20t105 12.5t82.5 37t54 62t19.5 87.5q0 70 -32.5 106.5t-81.5 53.5t-106 22.5t-106 14.5t-81.5 29t-32.5 66q0 66 43 97.5t134 31.5q43 0 78 -12.5t59.5 -36t37.5 -56.5t13 -74h60zM218 876h84v-17l-98 -129h-57zM330 876l72 -146h-57l-98 129v17h83z" />
    <glyph glyph-name="scircumflex" unicode="&#x15d;" 
d="M460 335l60 -1q0 36 -18 66t-50 52.5t-75.5 35t-94.5 12.5q-58 0 -101.5 -9t-72.5 -27.5t-43.5 -46t-14.5 -64.5q0 -50 32 -76.5t79.5 -39.5t103.5 -17.5t103.5 -11t79.5 -21.5t32 -47q0 -49 -50.5 -64.5t-147.5 -15.5q-100 0 -146 28.5t-46 91.5h-60q0 -45 16 -78.5
t47.5 -56t79 -34t109.5 -11.5q63 0 111.5 8t81 25.5t49 46t16.5 70.5q0 47 -32 71.5t-79.5 36t-103.5 16t-103.5 12t-79.5 24.5t-32 53q0 19 10.5 33t32 24t53.5 15t76 5q39 0 71.5 -8t56.5 -21.5t37 -33t13 -42.5zM229 697h84v-17l-98 -129h-57zM341 697l72 -146h-57
l-98 129v17h83z" />
    <glyph glyph-name="Scedilla" unicode="&#x15e;" horiz-adv-x="549" 
d="M525 441q0 50 -17 94t-48.5 76t-77.5 50.5t-103 18.5q-52 0 -96 -11t-75.5 -33t-49.5 -55.5t-18 -79.5q0 -66 32.5 -100t81.5 -50t106 -22t106 -16.5t81.5 -32.5t32.5 -71q0 -75 -47.5 -112t-143.5 -37q-91 0 -145 51t-54 138h-60q0 -50 17.5 -95.5t49.5 -79.5t78.5 -54
t103.5 -20t105 12.5t82.5 37t54 62t19.5 87.5q0 70 -32.5 106.5t-81.5 53.5t-106 22.5t-106 14.5t-81.5 29t-32.5 66q0 66 43 97.5t134 31.5q43 0 78 -12.5t59.5 -36t37.5 -56.5t13 -74h60zM205 -82l39 -17q3 7 8 13q4 5 10.5 9t15.5 4q13 0 21 -6.5t8 -18.5q0 -16 -9 -23.5
t-30 -8.5h-71v-60h74q48 0 70 17.5t22 56.5q0 19 -9.5 34t-24 23.5t-33 10t-36.5 -7.5l56 58l-65 1z" />
    <glyph glyph-name="scedilla" unicode="&#x15f;" 
d="M460 335l60 -1q0 36 -18 66t-50 52.5t-75.5 35t-94.5 12.5q-58 0 -101.5 -9t-72.5 -27.5t-43.5 -46t-14.5 -64.5q0 -50 32 -76.5t79.5 -39.5t103.5 -17.5t103.5 -11t79.5 -21.5t32 -47q0 -49 -50.5 -64.5t-147.5 -15.5q-100 0 -146 28.5t-46 91.5h-60q0 -45 16 -78.5
t47.5 -56t79 -34t109.5 -11.5q63 0 111.5 8t81 25.5t49 46t16.5 70.5q0 47 -32 71.5t-79.5 36t-103.5 16t-103.5 12t-79.5 24.5t-32 53q0 19 10.5 33t32 24t53.5 15t76 5q39 0 71.5 -8t56.5 -21.5t37 -33t13 -42.5zM255 1h65l-55 -57q18 9 36.5 7.5t33 -10t24 -23.5t9.5 -34
q0 -39 -22 -56.5t-70 -17.5h-74v60h71q21 1 30 8.5t9 23.5q0 12 -8 18.5t-21 6.5q-9 0 -15.5 -4t-10.5 -9q-5 -6 -8 -13l-39 17z" />
    <glyph glyph-name="Scaron" unicode="&#x160;" horiz-adv-x="549" 
d="M525 441q0 50 -17 94t-48.5 76t-77.5 50.5t-103 18.5q-52 0 -96 -11t-75.5 -33t-49.5 -55.5t-18 -79.5q0 -66 32.5 -100t81.5 -50t106 -22t106 -16.5t81.5 -32.5t32.5 -71q0 -75 -47.5 -112t-143.5 -37q-91 0 -145 51t-54 138h-60q0 -50 17.5 -95.5t49.5 -79.5t78.5 -54
t103.5 -20t105 12.5t82.5 37t54 62t19.5 87.5q0 70 -32.5 106.5t-81.5 53.5t-106 22.5t-106 14.5t-81.5 29t-32.5 66q0 66 43 97.5t134 31.5q43 0 78 -12.5t59.5 -36t37.5 -56.5t13 -74h60zM218 730h84v17l-98 129h-57zM330 730l72 146h-57l-98 -129v-17h83z" />
    <glyph glyph-name="scaron" unicode="&#x161;" 
d="M460 335l60 -1q0 36 -18 66t-50 52.5t-75.5 35t-94.5 12.5q-58 0 -101.5 -9t-72.5 -27.5t-43.5 -46t-14.5 -64.5q0 -50 32 -76.5t79.5 -39.5t103.5 -17.5t103.5 -11t79.5 -21.5t32 -47q0 -49 -50.5 -64.5t-147.5 -15.5q-100 0 -146 28.5t-46 91.5h-60q0 -45 16 -78.5
t47.5 -56t79 -34t109.5 -11.5q63 0 111.5 8t81 25.5t49 46t16.5 70.5q0 47 -32 71.5t-79.5 36t-103.5 16t-103.5 12t-79.5 24.5t-32 53q0 19 10.5 33t32 24t53.5 15t76 5q39 0 71.5 -8t56.5 -21.5t37 -33t13 -42.5zM228 551h84v17l-98 129h-57zM340 551l72 146h-57l-98 -129
v-17h83z" />
    <glyph glyph-name="uni0162" unicode="&#x162;" 
d="M30 620h510v60h-510v-60zM255 0h60v644h-60v-644zM205 -82l39 -17q3 7 8 13q4 5 10.5 9t15.5 4q13 0 21 -6.5t8 -18.5q0 -16 -9 -23.5t-30 -8.5h-71v-60h74q48 0 70 17.5t22 56.5q0 19 -9.5 34t-24 23.5t-33 10t-36.5 -7.5l55 57h-60z" />
    <glyph glyph-name="uni0163" unicode="&#x163;" horiz-adv-x="531" 
d="M192 650v-496q0 -81 33.5 -117.5t106.5 -36.5h169v60h-199q-16 0 -26 1.5t-15.5 7t-7 16t-1.5 28.5v537h-60zM501 500h-471v-60h471v60z" />
    <glyph glyph-name="Tcaron" unicode="&#x164;" 
d="M30 620h510v60h-510v-60zM255 0h60v644h-60v-644zM229 730h84v17l-98 129h-57zM341 730l72 146h-57l-98 -129v-17h83z" />
    <glyph glyph-name="tcaron" unicode="&#x165;" horiz-adv-x="723" 
d="M192 650v-496q0 -81 33.5 -117.5t106.5 -36.5h169v60h-199q-16 0 -26 1.5t-15.5 7t-7 16t-1.5 28.5v537h-60zM501 500h-471v-60h471v60zM561 548h132v132h-132v-132zM693 548v19h-71v-19l-47 -118h41z" />
    <glyph glyph-name="Tbar" unicode="&#x166;" 
d="M30 620h510v60h-510v-60zM255 0h60v644h-60v-644zM120 730h330v60h-330v-60z" />
    <glyph glyph-name="tbar" unicode="&#x167;" horiz-adv-x="531" 
d="M192 650v-496q0 -81 33.5 -117.5t106.5 -36.5h169v60h-199q-16 0 -26 1.5t-15.5 7t-7 16t-1.5 28.5v537h-60zM501 500h-471v-60h471v60zM101 257h330v60h-330v-60z" />
    <glyph glyph-name="Utilde" unicode="&#x168;" 
d="M30 680h60v-419q0 -45 13.5 -84t38.5 -67t60 -44t78 -16t79.5 15.5t63.5 43.5t42 67t15 85v419h60v-419q0 -58 -19.5 -107.5t-54 -86t-82 -57t-103.5 -20.5t-102 20.5t-79 57t-51.5 86t-18.5 107.5v419zM98 730q0 48 25 80t75 32q34 0 55.5 -10t39 -22.5t34.5 -22.5
t41 -10q22 0 33.5 14t11.5 41h60q0 -48 -25 -80t-75 -32q-34 0 -55.5 10t-39 22.5t-34.5 22.5t-41 10q-22 0 -33.5 -14t-11.5 -41h-60z" />
    <glyph glyph-name="utilde" unicode="&#x169;" horiz-adv-x="530" 
d="M500 500h-70v-500h70v500zM444 202l-14 89q0 -70 -13 -115.5t-35.5 -72.5t-52.5 -37.5t-65 -10.5q-50 0 -82 13t-50.5 39t-25 65t-6.5 89v239h-70v-254q0 -56 13.5 -103t40 -81t66.5 -53t94 -19q97 0 144.5 54.5t55.5 157.5zM78 578q0 48 25 80t75 32q34 0 55.5 -10
t39 -22.5t34.5 -22.5t41 -10q22 0 33.5 14t11.5 41h60q0 -48 -25 -80t-75 -32q-34 0 -55.5 10t-39 22.5t-34.5 22.5t-41 10q-22 0 -33.5 -14t-11.5 -41h-60z" />
    <glyph glyph-name="Umacron" unicode="&#x16a;" 
d="M30 680h60v-419q0 -45 13.5 -84t38.5 -67t60 -44t78 -16t79.5 15.5t63.5 43.5t42 67t15 85v419h60v-419q0 -58 -19.5 -107.5t-54 -86t-82 -57t-103.5 -20.5t-102 20.5t-79 57t-51.5 86t-18.5 107.5v419zM120 730h330v60h-330v-60z" />
    <glyph glyph-name="umacron" unicode="&#x16b;" horiz-adv-x="530" 
d="M500 500h-70v-500h70v500zM444 202l-14 89q0 -70 -13 -115.5t-35.5 -72.5t-52.5 -37.5t-65 -10.5q-50 0 -82 13t-50.5 39t-25 65t-6.5 89v239h-70v-254q0 -56 13.5 -103t40 -81t66.5 -53t94 -19q97 0 144.5 54.5t55.5 157.5zM100 620h330v60h-330v-60z" />
    <glyph glyph-name="Ubreve" unicode="&#x16c;" 
d="M30 680h60v-419q0 -45 13.5 -84t38.5 -67t60 -44t78 -16t79.5 15.5t63.5 43.5t42 67t15 85v419h60v-419q0 -58 -19.5 -107.5t-54 -86t-82 -57t-103.5 -20.5t-102 20.5t-79 57t-51.5 86t-18.5 107.5v419zM120 850h60q0 -38 30 -56.5t74 -18.5t75 19t31 56h59
q0 -55 -43.5 -92.5t-121.5 -37.5q-77 0 -120.5 37.5t-43.5 92.5z" />
    <glyph glyph-name="ubreve" unicode="&#x16d;" horiz-adv-x="530" 
d="M500 500h-70v-500h70v500zM444 202l-14 89q0 -70 -13 -115.5t-35.5 -72.5t-52.5 -37.5t-65 -10.5q-50 0 -82 13t-50.5 39t-25 65t-6.5 89v239h-70v-254q0 -56 13.5 -103t40 -81t66.5 -53t94 -19q97 0 144.5 54.5t55.5 157.5zM100 680h60q0 -38 30 -56.5t74 -18.5t75 19
t31 56h59q0 -55 -43.5 -92.5t-121.5 -37.5q-77 0 -120.5 37.5t-43.5 92.5z" />
    <glyph glyph-name="Uring" unicode="&#x16e;" 
d="M30 680h60v-419q0 -45 13.5 -84t38.5 -67t60 -44t78 -16t79.5 15.5t63.5 43.5t42 67t15 85v419h60v-419q0 -58 -19.5 -107.5t-54 -86t-82 -57t-103.5 -20.5t-102 20.5t-79 57t-51.5 86t-18.5 107.5v419zM186 819q0 45 26.5 72t72.5 27q44 0 71.5 -27t27.5 -72t-27.5 -72
t-71.5 -27q-46 0 -72.5 27t-26.5 72zM227 819q0 -26 16 -41.5t42 -15.5q25 0 41 15.5t16 41.5t-16 41.5t-41 15.5q-26 0 -42 -15.5t-16 -41.5z" />
    <glyph glyph-name="uring" unicode="&#x16f;" horiz-adv-x="530" 
d="M500 500h-70v-500h70v500zM444 202l-14 89q0 -70 -13 -115.5t-35.5 -72.5t-52.5 -37.5t-65 -10.5q-50 0 -82 13t-50.5 39t-25 65t-6.5 89v239h-70v-254q0 -56 13.5 -103t40 -81t66.5 -53t94 -19q97 0 144.5 54.5t55.5 157.5zM166 631q0 45 26.5 72t72.5 27q44 0 71.5 -27
t27.5 -72t-27.5 -72t-71.5 -27q-46 0 -72.5 27t-26.5 72zM207 631q0 -26 16 -41.5t42 -15.5q25 0 41 15.5t16 41.5t-16 41.5t-41 15.5q-26 0 -42 -15.5t-16 -41.5z" />
    <glyph glyph-name="Uhungarumlaut" unicode="&#x170;" 
d="M30 680h60v-419q0 -45 13.5 -84t38.5 -67t60 -44t78 -16t79.5 15.5t63.5 43.5t42 67t15 85v419h60v-419q0 -58 -19.5 -107.5t-54 -86t-82 -57t-103.5 -20.5t-102 20.5t-79 57t-51.5 86t-18.5 107.5v419zM227 876h84v-17l-98 -129h-57zM472 876v-17l-98 -129h-57l72 146
h83z" />
    <glyph glyph-name="uhungarumlaut" unicode="&#x171;" horiz-adv-x="530" 
d="M500 500h-70v-500h70v500zM444 202l-14 89q0 -70 -13 -115.5t-35.5 -72.5t-52.5 -37.5t-65 -10.5q-50 0 -82 13t-50.5 39t-25 65t-6.5 89v239h-70v-254q0 -56 13.5 -103t40 -81t66.5 -53t94 -19q97 0 144.5 54.5t55.5 157.5zM223 697h84v-17l-98 -129h-57zM468 697v-17
l-98 -129h-57l72 146h83z" />
    <glyph glyph-name="Uogonek" unicode="&#x172;" 
d="M30 680h60v-419q0 -45 13.5 -84t38.5 -67t60 -44t78 -16t79.5 15.5t63.5 43.5t42 67t15 85v419h60v-419q0 -58 -19.5 -107.5t-54 -86t-82 -57t-103.5 -20.5t-102 20.5t-79 57t-51.5 86t-18.5 107.5v419zM314 3q8 0 22 -1t18 -1q-62 -24 -89 -44.5t-27 -40.5q0 -9 2.5 -16
t8 -11.5t14 -7t19.5 -1.5h72v-70h-15.5h-34.5h-34.5h-15.5q-45 0 -67 18t-22 55q0 17 12 33.5t32 32.5t47 30t58 24z" />
    <glyph glyph-name="uogonek" unicode="&#x173;" horiz-adv-x="530" 
d="M500 500h-70v-500h70v500zM444 202l-14 89q0 -70 -13 -115.5t-35.5 -72.5t-52.5 -37.5t-65 -10.5q-50 0 -82 13t-50.5 39t-25 65t-6.5 89v239h-70v-254q0 -56 13.5 -103t40 -81t66.5 -53t94 -19q97 0 144.5 54.5t55.5 157.5zM460 3q8 0 22 -1t18 -1q-62 -24 -89 -44.5
t-27 -40.5q0 -9 2.5 -16t8 -11.5t14 -7t19.5 -1.5h72v-70h-15.5h-34.5h-34.5h-15.5q-45 0 -67 18t-22 55q0 17 12 33.5t32 32.5t47 30t58 24z" />
    <glyph glyph-name="Wcircumflex" unicode="&#x174;" horiz-adv-x="777" 
d="M31 680h61l143 -680h-61zM236 0h-62l183 680h62zM358 680h62l183 -680h-62zM685 680h61l-143 -680h-61zM332 876h84v-17l-98 -129h-57zM444 876l72 -146h-57l-98 129v17h83z" />
    <glyph glyph-name="wcircumflex" unicode="&#x175;" horiz-adv-x="880" 
d="M580 0h63l-160 500h-63zM586 0h64l200 500h-65zM250 0h64l-199 500h-65zM257 0h63l160 500h-63zM385 697h84v-17l-98 -129h-57zM497 697l72 -146h-57l-98 129v17h83z" />
    <glyph glyph-name="Ycircumflex" unicode="&#x176;" 
d="M255 0h60v280h-60v-280zM255 270h60l-224 410h-61zM255 270h60l225 410h-61zM229 876h84v-17l-98 -129h-57zM341 876l72 -146h-57l-98 129v17h83z" />
    <glyph glyph-name="ycircumflex" unicode="&#x177;" horiz-adv-x="560" 
d="M250 0h60l-220 500h-60zM250 0h60l220 500h-60zM269 43l-52 -120q-14 -32 -23 -42.5t-28 -10.5h-123v-60h111q37 0 57 10.5t33.5 30t23.5 48t26 65.5l35 79h-60zM224 697h84v-17l-98 -129h-57zM336 697l72 -146h-57l-98 129v17h83z" />
    <glyph glyph-name="Ydieresis" unicode="&#x178;" 
d="M255 0h60v280h-60v-280zM255 270h60l-224 410h-61zM255 270h60l225 410h-61zM149 730h90v97h-90v-97zM330 730h90v97h-90v-97z" />
    <glyph glyph-name="Zacute" unicode="&#x179;" horiz-adv-x="572" 
d="M30 620h510v60h-510v-60zM30 0h510v60h-510v-60zM30 0h29l481 620v60h-30l-480 -620v-60zM300 876h83v-17l-98 -129h-57z" />
    <glyph glyph-name="zacute" unicode="&#x17a;" 
d="M517 500l-487 -440v-60h23l487 440v60h-23zM30 500v-60h510v60h-510zM540 60h-510v-60h510v60zM297 697h83v-17l-98 -129h-57z" />
    <glyph glyph-name="Zdotaccent" unicode="&#x17b;" horiz-adv-x="572" 
d="M30 620h510v60h-510v-60zM30 0h510v60h-510v-60zM30 0h29l481 620v60h-30l-480 -620v-60zM241 730h90v97h-90v-97z" />
    <glyph glyph-name="zdotaccent" unicode="&#x17c;" 
d="M517 500l-487 -440v-60h23l487 440v60h-23zM30 500v-60h510v60h-510zM540 60h-510v-60h510v60zM240 553h90v97h-90v-97z" />
    <glyph glyph-name="Zcaron" unicode="&#x17d;" horiz-adv-x="572" 
d="M30 620h510v60h-510v-60zM30 0h510v60h-510v-60zM30 0h29l481 620v60h-30l-480 -620v-60zM230 730h84v17l-98 129h-57zM342 730l72 146h-57l-98 -129v-17h83z" />
    <glyph glyph-name="zcaron" unicode="&#x17e;" 
d="M517 500l-487 -440v-60h23l487 440v60h-23zM30 500v-60h510v60h-510zM540 60h-510v-60h510v60zM227 551h84v17l-98 129h-57zM339 551l72 146h-57l-98 -129v-17h83z" />
    <glyph glyph-name="florin" unicode="&#x192;" horiz-adv-x="414" 
 />
    <glyph glyph-name="circumflex" unicode="&#x2c6;" horiz-adv-x="315" 
d="M101 730h84v-17l-98 -129h-57zM213 730l72 -146h-57l-98 129v17h83z" />
    <glyph glyph-name="caron" unicode="&#x2c7;" horiz-adv-x="315" 
d="M101 584h84v17l-98 129h-57zM213 584l72 146h-57l-98 -129v-17h83z" />
    <glyph glyph-name="breve" unicode="&#x2d8;" horiz-adv-x="391" 
d="M31 730h60q0 -38 30 -56.5t74 -18.5t75 19t31 56h59q0 -55 -43.5 -92.5t-121.5 -37.5q-77 0 -120.5 37.5t-43.5 92.5z" />
    <glyph glyph-name="dotaccent" unicode="&#x2d9;" horiz-adv-x="151" 
d="M30 553h90v97h-90v-97z" />
    <glyph glyph-name="ring" unicode="&#x2da;" horiz-adv-x="259" 
d="M31 631q0 45 26.5 72t72.5 27q44 0 71.5 -27t27.5 -72t-27.5 -72t-71.5 -27q-46 0 -72.5 27t-26.5 72zM72 631q0 -26 16 -41.5t42 -15.5q25 0 41 15.5t16 41.5t-16 41.5t-41 15.5q-26 0 -42 -15.5t-16 -41.5z" />
    <glyph glyph-name="ogonek" unicode="&#x2db;" horiz-adv-x="250" 
d="M180 3q8 0 22 -1t18 -1q-62 -24 -89 -44.5t-27 -40.5q0 -9 2.5 -16t8 -11.5t14 -7t19.5 -1.5h72v-70h-15.5h-34.5h-34.5h-15.5q-45 0 -67 18t-22 55q0 17 12 33.5t32 32.5t47 30t58 24z" />
    <glyph glyph-name="tilde" unicode="&#x2dc;" horiz-adv-x="435" 
d="M30 628q0 48 25 80t75 32q34 0 55.5 -10t39 -22.5t34.5 -22.5t41 -10q22 0 33.5 14t11.5 41h60q0 -48 -25 -80t-75 -32q-34 0 -55.5 10t-39 22.5t-34.5 22.5t-41 10q-22 0 -33.5 -14t-11.5 -41h-60z" />
    <glyph glyph-name="hungarumlaut" unicode="&#x2dd;" horiz-adv-x="376" 
d="M101 730h84v-17l-98 -129h-57zM346 730v-17l-98 -129h-57l72 146h83z" />
    <glyph glyph-name="uni03BC" unicode="&#x3bc;" horiz-adv-x="623" 
 />
    <glyph glyph-name="endash" unicode="&#x2013;" 
d="M30 220h510v60h-510v-60z" />
    <glyph glyph-name="emdash" unicode="&#x2014;" horiz-adv-x="740" 
d="M30 220h680v60h-680v-60z" />
    <glyph glyph-name="quoteleft" unicode="&#x2018;" horiz-adv-x="192" 
d="M162 561h-132v-131h132v131zM30 561v-19h71v19l47 119h-41z" />
    <glyph glyph-name="quoteright" unicode="&#x2019;" horiz-adv-x="192" 
d="M30 548h132v132h-132v-132zM162 548v19h-71v-19l-47 -118h41z" />
    <glyph glyph-name="quotesinglbase" unicode="&#x201a;" horiz-adv-x="192" 
d="M30 0h132v132h-132v-132zM162 0v19h-71v-19l-47 -119h41z" />
    <glyph glyph-name="quotedblleft" unicode="&#x201c;" horiz-adv-x="397" 
d="M162 561h-132v-131h132v131zM30 561v-19h71v19l47 119h-41zM227 430h132v131h-132v-131zM227 561v-19h71v19l47 119h-41z" />
    <glyph glyph-name="quotedblright" unicode="&#x201d;" horiz-adv-x="389" 
d="M227 548h132v132h-132v-132zM359 548v19h-71v-19l-47 -118h41zM162 680h-132v-132h132v132zM162 549v18h-71v-18l-47 -119h41z" />
    <glyph glyph-name="quotedblbase" unicode="&#x201e;" horiz-adv-x="389" 
d="M227 0h132v132h-132v-132zM359 0v19h-71v-19l-47 -119h41zM162 132h-132v-132h132v132zM162 1v18h-71v-18l-47 -119l41 -1z" />
    <glyph glyph-name="dagger" unicode="&#x2020;" horiz-adv-x="512" 
 />
    <glyph glyph-name="daggerdbl" unicode="&#x2021;" horiz-adv-x="512" 
 />
    <glyph glyph-name="bullet" unicode="&#x2022;" horiz-adv-x="376" 
 />
    <glyph glyph-name="ellipsis" unicode="&#x2026;" horiz-adv-x="791" 
 />
    <glyph glyph-name="perthousand" unicode="&#x2030;" horiz-adv-x="1399" 
d="M577 760h63l-254 -860h-63zM574 176q0 42 13.5 76.5t38 59t58.5 37.5t76 13t76.5 -13t58.5 -37.5t37.5 -59t13.5 -76.5t-13.5 -76t-37.5 -58.5t-58.5 -38t-76.5 -13.5t-76 13.5t-58.5 38t-38 58.5t-13.5 76zM634 176q0 -60 33.5 -93t93.5 -33q59 0 92.5 33t33.5 93
t-33.5 93t-92.5 33q-60 0 -93.5 -33t-33.5 -93zM30 504q0 42 13.5 76t38 58.5t59 38t75.5 13.5q42 0 76.5 -13.5t59 -38t38 -58.5t13.5 -76t-13.5 -76.5t-38 -59t-59 -37.5t-76.5 -13q-41 0 -75.5 13t-59 37.5t-38 59t-13.5 76.5zM90 504q0 -60 33.5 -93t93.5 -33t93 33
t33 93q0 59 -33 92.5t-93 33.5t-93.5 -33.5t-33.5 -92.5zM996 176q0 42 13.5 76.5t38 58.5t59 37.5t75.5 13.5q42 0 76.5 -13.5t59 -37.5t37.5 -58.5t13 -76.5t-13 -76.5t-37.5 -58.5t-59 -37.5t-76.5 -13.5q-41 0 -75.5 13.5t-59 37.5t-38 58.5t-13.5 76.5zM1056 176
q0 -60 33.5 -93t93.5 -33q59 0 92.5 33t33.5 93q0 59 -33.5 92.5t-92.5 33.5q-60 0 -93.5 -33.5t-33.5 -92.5z" />
    <glyph glyph-name="guilsinglleft" unicode="&#x2039;" horiz-adv-x="232" 
d="M30 250l52 -30l120 208l-52 30zM82 280l-52 -30l120 -208l52 30z" />
    <glyph glyph-name="guilsinglright" unicode="&#x203a;" horiz-adv-x="232" 
d="M202 250l-52 -30l-120 208l52 30zM150 280l52 -30l-120 -208l-52 30z" />
    <glyph glyph-name="fraction" unicode="&#x2044;" horiz-adv-x="130" 
 />
    <glyph glyph-name="Euro" unicode="&#x20ac;" horiz-adv-x="630" 
d="M30 385h340v60h-340v-60zM30 235h340v60h-340v-60zM540 255q-4 -46 -17 -83.5t-36.5 -64.5t-58.5 -42t-82 -15q-52 0 -89 18t-61 50.5t-35 77.5t-11 99v90q0 54 11 99t35 77.5t61 50.5t89 18q47 0 82 -15t58.5 -42t36.5 -64.5t17 -83.5h60q-10 122 -74 193.5t-180 71.5
q-62 0 -110 -21.5t-80 -61t-48.5 -96t-16.5 -126.5v-90q0 -70 16.5 -126t48.5 -96t80 -61.5t110 -21.5q58 0 103 18.5t77 53t50.5 83.5t23.5 110h-60z" />
    <glyph glyph-name="trademark" unicode="&#x2122;" horiz-adv-x="773" 
 />
    <glyph glyph-name="minus" unicode="&#x2212;" horiz-adv-x="388" 
d="M30 220h328v60h-328v-60z" />
  </font>
</defs>
</svg>
