{
  "accessors": [
    {
      "bufferView": 2,
      "componentType": 5126,
      "count": 65532,
      "max": [
        1.032414436340332,
        1.1521707773208618,
        1.1627960205078125
      ],
      "min": [
        -1.0323704481124878,
        -0.9314228296279907,
        -1.15510892868042
      ],
      "type": "VEC3"
    },
    {
      "bufferView": 2,
      "byteOffset": 786384,
      "componentType": 5126,
      "count": 65532,
      "max": [
        0.9999796748161316,
        0.9999074339866638,
        0.9999410510063171
      ],
      "min": [
        -0.9999747276306152,
        -0.9987094402313232,
        -0.9999142289161682
      ],
      "type": "VEC3"
    },
    {
      "bufferView": 0,
      "componentType": 5125,
      "count": 369138,
      "type": "SCALAR"
    },
    {
      "bufferView": 2,
      "byteOffset": 1572768,
      "componentType": 5126,
      "count": 65532,
      "max": [
        1.5655642747879028,
        0.00287894019857049,
        1.0281649827957153
      ],
      "min": [
        -1.5656615495681763,
        -3.021996021270752,
        -1.1086989641189575
      ],
      "type": "VEC3"
    },
    {
      "bufferView": 2,
      "byteOffset": 2359152,
      "componentType": 5126,
      "count": 65532,
      "max": [
        0.9999930262565613,
        0.9503911137580872,
        0.9999691247940063
      ],
      "min": [
        -0.9999954700469971,
        -0.9996267557144165,
        -0.9996762871742249
      ],
      "type": "VEC3"
    },
    {
      "bufferView": 0,
      "byteOffset": 1476552,
      "componentType": 5125,
      "count": 344271,
      "type": "SCALAR"
    },
    {
      "bufferView": 2,
      "byteOffset": 3145536,
      "componentType": 5126,
      "count": 37193,
      "max": [
        1.5646331310272217,
        1.1341512203216553,
        1.1590155363082886
      ],
      "min": [
        -1.5637377500534058,
        -3.032402992248535,
        -1.1478984355926514
      ],
      "type": "VEC3"
    },
    {
      "bufferView": 2,
      "byteOffset": 3591852,
      "componentType": 5126,
      "count": 37193,
      "max": [
        0.9992964267730713,
        0.993630051612854,
        0.9998195767402649
      ],
      "min": [
        -0.9993716478347778,
        -0.9997535943984985,
        -0.9984578490257263
      ],
      "type": "VEC3"
    },
    {
      "bufferView": 0,
      "byteOffset": 2853636,
      "componentType": 5125,
      "count": 78963,
      "type": "SCALAR"
    },
    {
      "bufferView": 2,
      "byteOffset": 4038168,
      "componentType": 5126,
      "count": 46420,
      "max": [
        1.0707813501358032,
        0.9968007206916809,
        0.951191246509552
      ],
      "min": [
        -1.0707812309265137,
        -1.0380421876907349,
        -1.5836049318313599
      ],
      "type": "VEC3"
    },
    {
      "bufferView": 2,
      "byteOffset": 4595208,
      "componentType": 5126,
      "count": 46420,
      "max": [
        0.9999490976333618,
        0.9999992251396179,
        0.9999024868011475
      ],
      "min": [
        -0.9999490976333618,
        -0.9999992251396179,
        -0.9998754262924194
      ],
      "type": "VEC3"
    },
    {
      "bufferView": 1,
      "componentType": 5126,
      "count": 46420,
      "max": [
        0.7500001192092896,
        1.0000001192092896
      ],
      "min": [
        0.23893266916275024,
        0.04691872000694275
      ],
      "type": "VEC2"
    },
    {
      "bufferView": 0,
      "byteOffset": 3169488,
      "componentType": 5125,
      "count": 276624,
      "type": "SCALAR"
    }
  ],
  "asset": {
    "extras": {
      "author": "4145K4N (https://sketchfab.com/4145K4N)",
      "license": "SKETCHFAB Standard (https://sketchfab.com/licenses)",
      "source": "https://sketchfab.com/3d-models/latex-mask-83e0764a64ee4a0694a24b8bda3491ac",
      "title": "Latex mask"
    },
    "generator": "Sketchfab-15.72.0",
    "version": "2.0"
  },
  "bufferViews": [
    {
      "buffer": 0,
      "byteLength": 4275984,
      "name": "floatBufferViews",
      "target": 34963
    },
    {
      "buffer": 0,
      "byteLength": 371360,
      "byteOffset": 4275984,
      "byteStride": 8,
      "name": "floatBufferViews",
      "target": 34962
    },
    {
      "buffer": 0,
      "byteLength": 5152248,
      "byteOffset": 4647344,
      "byteStride": 12,
      "name": "floatBufferViews",
      "target": 34962
    }
  ],
  "buffers": [
    {
      "byteLength": 9799592,
      "uri": "scene.bin"
    }
  ],
  "extensionsUsed": [
    "KHR_materials_clearcoat",
    "KHR_materials_transmission"
  ],
  "materials": [
    {
      "alphaMode": "BLEND",
      "doubleSided": true,
      "extensions": {
        "KHR_materials_clearcoat": {
          "clearcoatFactor": 1.0,
          "clearcoatRoughnessFactor": 0.04
        },
        "KHR_materials_transmission": {
          "transmissionFactor": 0.9588570174690056
        }
      },
      "name": "Material.002",
      "pbrMetallicRoughness": {
        "baseColorFactor": [
          1.0,
          0.8928293248917687,
          0.8928293248917687,
          0.25
        ],
        "metallicFactor": 0.4434299228340505,
        "roughnessFactor": 0.8491423973863539
      }
    },
    {
      "doubleSided": true,
      "name": "Material.004",
      "pbrMetallicRoughness": {
        "baseColorFactor": [
          0.0,
          0.0,
          0.0,
          1.0
        ],
        "metallicFactor": 0.2118101693262303,
        "roughnessFactor": 0.23961673026051133
      }
    }
  ],
  "meshes": [
    {
      "name": "headMesh.003_Material.002_0",
      "primitives": [
        {
          "attributes": {
            "NORMAL": 1,
            "POSITION": 0
          },
          "indices": 2,
          "material": 0,
          "mode": 4
        }
      ]
    },
    {
      "name": "headMesh.003_Material.002_0",
      "primitives": [
        {
          "attributes": {
            "NORMAL": 4,
            "POSITION": 3
          },
          "indices": 5,
          "material": 0,
          "mode": 4
        }
      ]
    },
    {
      "name": "headMesh.003_Material.002_0",
      "primitives": [
        {
          "attributes": {
            "NORMAL": 7,
            "POSITION": 6
          },
          "indices": 8,
          "material": 0,
          "mode": 4
        }
      ]
    },
    {
      "name": "Sphere.003_Material.004_0",
      "primitives": [
        {
          "attributes": {
            "NORMAL": 10,
            "POSITION": 9,
            "TEXCOORD_0": 11
          },
          "indices": 12,
          "material": 1,
          "mode": 4
        }
      ]
    }
  ],
  "nodes": [
    {
      "children": [
        1
      ],
      "matrix": [
        1.0,
        0.0,
        0.0,
        0.0,
        0.0,
        2.220446049250313e-16,
        -1.0,
        0.0,
        0.0,
        1.0,
        2.220446049250313e-16,
        0.0,
        0.0,
        0.0,
        0.0,
        1.0
      ],
      "name": "Sketchfab_model"
    },
    {
      "children": [
        2
      ],
      "matrix": [
        0.009999999776482582,
        0.0,
        0.0,
        0.0,
        0.0,
        0.0,
        0.009999999776482582,
        0.0,
        0.0,
        -0.009999999776482582,
        0.0,
        0.0,
        0.0,
        0.0,
        0.0,
        1.0
      ],
      "name": "2187bf1979ef4f049c073db8e819f79d.fbx"
    },
    {
      "children": [
        3,
        7
      ],
      "name": "RootNode"
    },
    {
      "children": [
        4,
        5,
        6
      ],
      "matrix": [
        100.0,
        0.0,
        0.0,
        0.0,
        0.0,
        99.99999999999972,
        -7.5497901264043296e-06,
        0.0,
        0.0,
        7.5497901264043296e-06,
        99.99999999999972,
        0.0,
        0.0,
        0.0,
        0.0,
        1.0
      ],
      "name": "headMesh.003"
    },
    {
      "mesh": 0,
      "name": "headMesh.003_Material.002_0"
    },
    {
      "mesh": 1,
      "name": "headMesh.003_Material.002_0"
    },
    {
      "mesh": 2,
      "name": "headMesh.003_Material.002_0"
    },
    {
      "children": [
        8
      ],
      "matrix": [
        97.01500701904297,
        0.0,
        0.0,
        0.0,
        0.0,
        -1.9071378734141163e-05,
        -117.0592880249008,
        0.0,
        0.0,
        122.52648162841635,
        -1.9962097630392604e-05,
        0.0,
        0.0,
        0.0,
        0.0,
        1.0
      ],
      "name": "Sphere.003"
    },
    {
      "mesh": 3,
      "name": "Sphere.003_Material.004_0"
    }
  ],
  "scene": 0,
  "scenes": [
    {
      "name": "Sketchfab_Scene",
      "nodes": [
        0
      ]
    }
  ]
}
