{
  "accessors": [
    {
      "bufferView": 2,
      "componentType": 5126,
      "count": 65532,
      "max": [
        1.123473048210144,
        1.1521707773208618,
        1.1627960205078125
      ],
      "min": [
        -1.1237131357192993,
        -0.9314228296279907,
        -1.15510892868042
      ],
      "type": "VEC3"
    },
    {
      "bufferView": 2,
      "byteOffset": 786384,
      "componentType": 5126,
      "count": 65532,
      "max": [
        0.9985467791557312,
        0.9999775886535645,
        0.9999410510063171
      ],
      "min": [
        -0.9985306262969971,
        -0.9987094402313232,
        -0.9999142289161682
      ],
      "type": "VEC3"
    },
    {
      "bufferView": 0,
      "componentType": 5125,
      "count": 369138,
      "type": "SCALAR"
    },
    {
      "bufferView": 2,
      "byteOffset": 1572768,
      "componentType": 5126,
      "count": 65532,
      "max": [
        1.5655642747879028,
        0.00287894019857049,
        1.0281649827957153
      ],
      "min": [
        -1.5656615495681763,
        -3.021996021270752,
        -1.1086989641189575
      ],
      "type": "VEC3"
    },
    {
      "bufferView": 2,
      "byteOffset": 2359152,
      "componentType": 5126,
      "count": 65532,
      "max": [
        0.999993085861206,
        0.9503910541534424,
        0.9999691247940063
      ],
      "min": [
        -0.9999954700469971,
        -0.9996267557144165,
        -0.9996762871742249
      ],
      "type": "VEC3"
    },
    {
      "bufferView": 0,
      "byteOffset": 1476552,
      "componentType": 5125,
      "count": 344271,
      "type": "SCALAR"
    },
    {
      "bufferView": 2,
      "byteOffset": 3145536,
      "componentType": 5126,
      "count": 37193,
      "max": [
        1.5646331310272217,
        1.1341512203216553,
        1.1590155363082886
      ],
      "min": [
        -1.5637377500534058,
        -3.032402992248535,
        -1.1478984355926514
      ],
      "type": "VEC3"
    },
    {
      "bufferView": 2,
      "byteOffset": 3591852,
      "componentType": 5126,
      "count": 37193,
      "max": [
        0.9984554052352905,
        0.9999775886535645,
        0.9998195767402649
      ],
      "min": [
        -0.9955669641494751,
        -0.9997535943984985,
        -0.9984578490257263
      ],
      "type": "VEC3"
    },
    {
      "bufferView": 0,
      "byteOffset": 2853636,
      "componentType": 5125,
      "count": 78963,
      "type": "SCALAR"
    },
    {
      "bufferView": 2,
      "byteOffset": 4038168,
      "componentType": 5126,
      "count": 4552,
      "max": [
        0.9312759041786194,
        1.1024593114852905,
        0.4094870686531067
      ],
      "min": [
        -0.9283677935600281,
        -0.8190881609916687,
        -0.21010778844356537
      ],
      "type": "VEC3"
    },
    {
      "bufferView": 2,
      "byteOffset": 4092792,
      "componentType": 5126,
      "count": 4552,
      "max": [
        0.9999433755874634,
        0.9978904724121094,
        0.9995212554931641
      ],
      "min": [
        -0.9999985098838806,
        -0.9998316764831543,
        -0.9328857660293579
      ],
      "type": "VEC3"
    },
    {
      "bufferView": 1,
      "componentType": 5126,
      "count": 4552,
      "max": [
        0.7916668653488159,
        1.000000238418579
      ],
      "min": [
        0.0,
        0.0
      ],
      "type": "VEC2"
    },
    {
      "bufferView": 0,
      "byteOffset": 3169488,
      "componentType": 5125,
      "count": 22656,
      "type": "SCALAR"
    },
    {
      "bufferView": 2,
      "byteOffset": 4147416,
      "componentType": 5126,
      "count": 16232,
      "max": [
        0.9954760670661926,
        0.8226319551467896,
        0.17975254356861115
      ],
      "min": [
        -0.9954173564910889,
        -1.0728758573532104,
        -0.587906539440155
      ],
      "type": "VEC3"
    },
    {
      "bufferView": 2,
      "byteOffset": 4342200,
      "componentType": 5126,
      "count": 16232,
      "max": [
        0.9998779892921448,
        0.9998630881309509,
        0.9997298717498779
      ],
      "min": [
        -0.9999107122421265,
        -0.9998762607574463,
        -0.9997577667236328
      ],
      "type": "VEC3"
    },
    {
      "bufferView": 0,
      "byteOffset": 3260112,
      "componentType": 5125,
      "count": 94332,
      "type": "SCALAR"
    },
    {
      "bufferView": 2,
      "byteOffset": 4536984,
      "componentType": 5126,
      "count": 17084,
      "max": [
        1.0355653762817383,
        0.8655997514724731,
        0.2124672383069992
      ],
      "min": [
        -1.0367692708969116,
        -1.0895668268203735,
        -0.6179919838905334
      ],
      "type": "VEC3"
    },
    {
      "bufferView": 2,
      "byteOffset": 4741992,
      "componentType": 5126,
      "count": 17084,
      "max": [
        0.9999656081199646,
        0.9999972581863403,
        0.9999815225601196
      ],
      "min": [
        -0.9999747276306152,
        -0.9998683929443359,
        -0.9999053478240967
      ],
      "type": "VEC3"
    },
    {
      "bufferView": 0,
      "byteOffset": 3637440,
      "componentType": 5125,
      "count": 102504,
      "type": "SCALAR"
    }
  ],
  "asset": {
    "extras": {
      "author": "4145K4N (https://sketchfab.com/4145K4N)",
      "license": "SKETCHFAB Standard (https://sketchfab.com/licenses)",
      "source": "https://sketchfab.com/3d-models/oversized-sunglasses-spikes-teeth-740a19589d4a44e5b3ad2328e3cf9592",
      "title": "Oversized sunglasses / spikes / teeth"
    },
    "generator": "Sketchfab-16.8.0",
    "version": "2.0"
  },
  "bufferViews": [
    {
      "buffer": 0,
      "byteLength": 4047456,
      "name": "floatBufferViews",
      "target": 34963
    },
    {
      "buffer": 0,
      "byteLength": 36416,
      "byteOffset": 4047456,
      "byteStride": 8,
      "name": "floatBufferViews",
      "target": 34962
    },
    {
      "buffer": 0,
      "byteLength": 4947000,
      "byteOffset": 4083872,
      "byteStride": 12,
      "name": "floatBufferViews",
      "target": 34962
    }
  ],
  "buffers": [
    {
      "byteLength": 9030872,
      "uri": "scene.bin"
    }
  ],
  "extensionsUsed": [
    "KHR_materials_clearcoat"
  ],
  "materials": [
    {
      "doubleSided": true,
      "name": "Material.005",
      "pbrMetallicRoughness": {
        "baseColorFactor": [
          0.23587975110096832,
          0.23273015504233707,
          0.23273015504233707,
          1.0
        ],
        "metallicFactor": 0.0,
        "roughnessFactor": 0.29583454116442565
      }
    },
    {
      "alphaMode": "BLEND",
      "doubleSided": true,
      "extensions": {
        "KHR_materials_clearcoat": {
          "clearcoatFactor": 1.0,
          "clearcoatRoughnessFactor": 0.04
        }
      },
      "name": "Material",
      "pbrMetallicRoughness": {
        "baseColorFactor": [
          0.0,
          0.0,
          0.0,
          0.7831145852331257
        ],
        "metallicFactor": 0.0,
        "roughnessFactor": 0.0
      }
    },
    {
      "doubleSided": true,
      "name": "Material.004",
      "pbrMetallicRoughness": {
        "baseColorFactor": [
          0.0559993,
          0.0559993,
          0.0559993,
          1.0
        ],
        "roughnessFactor": 0.1804473564295429
      }
    },
    {
      "doubleSided": true,
      "name": "Material.001",
      "pbrMetallicRoughness": {
        "baseColorFactor": [
          0.158253,
          0.158253,
          0.158253,
          1.0
        ],
        "roughnessFactor": 0.0
      }
    }
  ],
  "meshes": [
    {
      "name": "headMesh_Material.005_0",
      "primitives": [
        {
          "attributes": {
            "NORMAL": 1,
            "POSITION": 0
          },
          "indices": 2,
          "material": 0,
          "mode": 4
        }
      ]
    },
    {
      "name": "headMesh_Material.005_0",
      "primitives": [
        {
          "attributes": {
            "NORMAL": 4,
            "POSITION": 3
          },
          "indices": 5,
          "material": 0,
          "mode": 4
        }
      ]
    },
    {
      "name": "headMesh_Material.005_0",
      "primitives": [
        {
          "attributes": {
            "NORMAL": 7,
            "POSITION": 6
          },
          "indices": 8,
          "material": 0,
          "mode": 4
        }
      ]
    },
    {
      "name": "BezierCircle.001_Material_0",
      "primitives": [
        {
          "attributes": {
            "NORMAL": 10,
            "POSITION": 9,
            "TEXCOORD_0": 11
          },
          "indices": 12,
          "material": 1,
          "mode": 4
        }
      ]
    },
    {
      "name": "Mball.004_Material.004_0",
      "primitives": [
        {
          "attributes": {
            "NORMAL": 14,
            "POSITION": 13
          },
          "indices": 15,
          "material": 2,
          "mode": 4
        }
      ]
    },
    {
      "name": "Mball.006_Material.001_0",
      "primitives": [
        {
          "attributes": {
            "NORMAL": 17,
            "POSITION": 16
          },
          "indices": 18,
          "material": 3,
          "mode": 4
        }
      ]
    }
  ],
  "nodes": [
    {
      "children": [
        1
      ],
      "matrix": [
        1.0,
        0.0,
        0.0,
        0.0,
        0.0,
        2.220446049250313e-16,
        -1.0,
        0.0,
        0.0,
        1.0,
        2.220446049250313e-16,
        0.0,
        0.0,
        0.0,
        0.0,
        1.0
      ],
      "name": "Sketchfab_model"
    },
    {
      "children": [
        2
      ],
      "matrix": [
        0.009999999776482582,
        0.0,
        0.0,
        0.0,
        0.0,
        0.0,
        0.009999999776482582,
        0.0,
        0.0,
        -0.009999999776482582,
        0.0,
        0.0,
        0.0,
        0.0,
        0.0,
        1.0
      ],
      "name": "f78a1d63d3c54be29b2586e7f3a8476f.fbx"
    },
    {
      "children": [
        3,
        7,
        9,
        11
      ],
      "name": "RootNode"
    },
    {
      "children": [
        4,
        5,
        6
      ],
      "matrix": [
        100.0,
        0.0,
        0.0,
        0.0,
        0.0,
        99.99999999999972,
        -7.5497901264043296e-06,
        0.0,
        0.0,
        7.5497901264043296e-06,
        99.99999999999972,
        0.0,
        0.0,
        0.0,
        -3.047858953475952,
        1.0
      ],
      "name": "headMesh"
    },
    {
      "mesh": 0,
      "name": "headMesh_Material.005_0"
    },
    {
      "mesh": 1,
      "name": "headMesh_Material.005_0"
    },
    {
      "mesh": 2,
      "name": "headMesh_Material.005_0"
    },
    {
      "children": [
        8
      ],
      "matrix": [
        98.73240443260647,
        -7.993152380107133e-08,
        1.7233808844564662,
        0.0,
        -1.7236303103439006,
        -11.12756940909886,
        98.7466935130835,
        0.0,
        0.2112928686990279,
        -107.45286789772642,
        -12.104962833894362,
        0.0,
        0.0,
        -4.089430809020996,
        0.09693503379821777,
        1.0
      ],
      "name": "BezierCircle.001"
    },
    {
      "mesh": 3,
      "name": "BezierCircle.001_Material_0"
    },
    {
      "children": [
        10
      ],
      "matrix": [
        100.0,
        0.0,
        0.0,
        0.0,
        0.0,
        -1.629206793918314e-05,
        -99.99999999999868,
        0.0,
        0.0,
        99.99999999999868,
        -1.629206793918314e-05,
        0.0,
        0.0,
        0.0,
        0.0,
        1.0
      ],
      "name": "Mball.004"
    },
    {
      "mesh": 4,
      "name": "Mball.004_Material.004_0"
    },
    {
      "children": [
        12
      ],
      "matrix": [
        100.0,
        0.0,
        0.0,
        0.0,
        0.0,
        -1.629206793918314e-05,
        -99.99999999999868,
        0.0,
        0.0,
        99.99999999999868,
        -1.629206793918314e-05,
        0.0,
        0.0,
        0.0,
        0.0,
        1.0
      ],
      "name": "Mball.006"
    },
    {
      "mesh": 5,
      "name": "Mball.006_Material.001_0"
    }
  ],
  "scene": 0,
  "scenes": [
    {
      "name": "Sketchfab_Scene",
      "nodes": [
        0
      ]
    }
  ]
}
